<svg width="212" height="281" viewBox="0 0 212 281" fill="none" xmlns="http://www.w3.org/2000/svg">
<path d="M140.917 219.174C152.006 210.453 169.771 212.768 175.8 225.796C178.007 230.587 180.214 235.324 182.475 240.115C185.329 246.252 188.451 252.712 194.049 256.588C198.033 259.28 202.447 259.979 206.969 258.472C207.885 258.149 210.307 256.48 211.168 256.965C213.375 258.203 210.576 264.394 209.822 265.793C208.046 269.023 205.139 271.446 202.017 273.276C195.503 277.044 187.536 278.606 180.053 278.821C168.856 279.144 156.905 277.421 146.569 273.007C145.331 272.469 144.093 271.93 143.016 271.123C141.024 269.669 139.625 267.731 137.633 266.224C135.695 264.771 134.026 262.779 132.68 260.787C131.227 258.687 130.15 256.319 129.45 253.896C126.005 242.591 130.042 229.618 138.494 221.381C139.248 220.574 140.055 219.82 140.917 219.174Z" fill="#C9A18A"/>
<path d="M30.1826 279.252L154.321 280.705C154.859 277.852 154.375 274.676 152.114 272.63C150.499 271.177 146.084 269.508 144.2 271.338C151.575 264.34 151.737 253.573 149.691 244.207C147.538 234.409 142.585 225.365 137.094 217.075C130.096 206.47 125.359 194.034 121.106 182.084C119.276 176.916 117.607 171.694 116.207 166.418C115.184 162.596 114.323 158.774 113.623 154.898C112.708 149.892 111.954 144.508 111.847 139.233C111.739 135.141 112.062 131.05 113.031 127.12C113.246 126.259 113.462 125.398 113.785 124.59L58.5524 105.21C53.869 112.209 55.7531 123.998 56.6144 131.804C56.8836 134.065 57.1527 136.272 57.4757 138.479C58.4447 144.778 59.7368 150.861 61.0288 157.213C61.2979 158.666 61.5132 160.12 61.6747 161.627C62.6975 171.317 61.1903 182.03 59.1446 191.128C56.13 204.532 50.5313 217.775 44.7174 230.21C39.2265 241.999 35.8888 255.727 39.3341 268.593C39.1188 267.785 35.3505 269.293 34.866 269.508C31.2054 270.908 29.2674 275.591 30.1826 279.252Z" fill="#DFBC9C"/>
<path d="M57.4757 138.478C58.4447 144.776 59.7367 150.86 61.0287 157.212C61.2979 158.665 61.5132 160.119 61.6747 161.626C82.831 175.623 103.072 171.908 116.207 166.471C115.184 162.649 114.323 158.827 113.623 154.951C112.708 149.944 111.954 144.561 111.847 139.286L57.4757 138.478Z" fill="#EC4E20"/>
<path d="M116.692 167.656C120.191 172.824 122.236 179.069 123.744 185.098C127.835 201.786 126.597 219.443 122.506 236.024C120.837 242.699 118.737 249.213 116.261 255.619C113.623 262.456 111.039 269.831 105.817 275.106C104.956 275.968 103.987 276.829 102.857 277.26C102.426 277.421 101.888 277.583 101.403 277.529C98.3885 277.26 98.3347 273.222 98.0655 270.907C97.0965 261.379 98.8192 251.581 99.5729 242.107C100.38 231.986 100.919 221.758 100.165 211.584C99.7882 206.793 99.2499 201.732 97.3657 197.21L116.692 167.656Z" fill="#DFBC9C"/>
<path d="M97.7964 268.538C97.7964 268.108 97.7426 267.677 97.7426 267.247C97.7426 267.085 97.7426 266.87 97.7426 266.708C97.7426 266.278 97.7426 265.847 97.6888 265.416C97.6888 265.255 97.6888 265.039 97.6888 264.878C97.6888 264.447 97.6888 264.017 97.6888 263.532C97.6888 263.371 97.6888 263.209 97.6888 263.048C97.6888 262.563 97.6887 262.132 97.7426 261.648C97.7426 261.54 97.7426 261.379 97.7426 261.271C97.7426 260.787 97.7964 260.248 97.7964 259.764C97.7964 259.656 97.7964 259.602 97.7964 259.495C97.8502 258.956 97.8503 258.418 97.9041 257.88C97.9041 257.826 97.9041 257.772 97.9041 257.772C97.9579 257.18 98.0117 256.588 98.0656 255.995C98.1194 255.511 98.1732 255.08 98.2271 254.65C98.6039 251.258 99.0345 246.952 99.4652 242.214C99.4652 242.16 99.4652 242.16 99.4652 242.107C99.6267 240.276 99.7344 238.5 99.8421 236.669C99.8421 236.4 99.8959 236.185 99.8959 235.916C99.9497 235.108 100.004 234.301 100.057 233.44C100.057 233.17 100.057 232.901 100.111 232.686C100.165 231.286 100.273 229.887 100.273 228.487C100.273 228.433 100.273 228.433 100.273 228.379C100.327 226.926 100.38 225.472 100.38 224.019C100.38 223.965 100.38 223.965 100.38 223.911C100.434 220.843 100.38 217.774 100.219 214.706C100.165 213.683 100.111 212.66 100.057 211.691C100.057 211.637 100.057 211.637 100.057 211.583C100.057 211.26 100.004 210.937 100.004 210.561V210.507C99.9497 210.076 99.9497 209.592 99.8959 209.161C99.8959 209.053 99.8959 208.946 99.8421 208.838C99.7882 208.407 99.7344 207.923 99.6805 207.492C99.6805 207.438 99.6805 207.438 99.6805 207.384C98.8192 202.378 97.7425 197.533 95.9661 192.742C100.38 197.264 102.157 202.593 103.126 208.73C104.848 219.443 105.064 230.586 103.449 241.245C102.695 245.983 102.803 250.666 102.211 255.403C101.942 257.664 100.004 270.369 103.718 269.723C105.656 269.4 107.594 266.385 108.455 264.77C110.07 261.756 111.255 258.526 112.331 255.242C113.516 251.689 114.7 248.082 115.884 244.475C121.967 225.365 126.112 204.531 121.214 184.667C120.46 181.545 119.545 178.53 118.737 175.408C118.307 173.739 117.822 172.07 117.338 170.455C117.122 169.755 116.961 168.679 116.692 167.656L116.746 167.602C119.653 171.909 121.59 177.023 122.99 182.137C123.098 182.621 123.259 183.106 123.367 183.644C123.475 184.021 123.582 184.398 123.636 184.775C123.69 184.936 123.69 185.044 123.744 185.205C123.798 185.475 123.851 185.744 123.905 186.013C124.013 186.39 124.067 186.713 124.174 187.09C124.228 187.359 124.282 187.682 124.39 187.951C124.444 188.112 124.444 188.274 124.497 188.382C124.659 189.189 124.82 189.997 124.928 190.804C124.982 191.181 125.036 191.611 125.143 191.988C125.251 192.527 125.305 193.119 125.413 193.657C125.52 194.411 125.628 195.218 125.682 196.026C125.682 196.133 125.682 196.187 125.682 196.295C125.682 196.403 125.736 196.564 125.736 196.672C126.22 201.248 126.382 206.308 126.112 211.853C126.112 211.906 126.112 211.906 126.112 211.96C126.112 212.014 126.112 212.068 126.112 212.068C126.059 213.414 125.951 214.76 125.843 216.159C125.843 216.213 125.843 216.213 125.843 216.267C125.789 216.859 125.736 217.397 125.682 217.99C125.628 218.366 125.628 218.743 125.574 219.066C125.52 219.605 125.466 220.089 125.413 220.627C125.359 221.219 125.251 221.812 125.197 222.404C125.197 222.565 125.143 222.673 125.143 222.834C125.09 223.265 125.036 223.75 124.928 224.18C124.82 224.826 124.713 225.418 124.605 226.064C124.551 226.441 124.497 226.818 124.39 227.195C124.282 227.787 124.174 228.433 124.067 229.025C124.067 229.025 124.067 229.025 124.067 229.079C124.013 229.402 123.959 229.725 123.851 230.102C123.798 230.263 123.798 230.371 123.744 230.533C123.636 231.125 123.475 231.771 123.367 232.363C123.313 232.578 123.259 232.74 123.259 232.955C123.152 233.386 123.044 233.816 122.936 234.247C122.829 234.785 122.667 235.324 122.559 235.862C122.506 235.97 122.506 236.131 122.452 236.239C122.236 237.154 121.967 238.015 121.752 238.877C121.59 239.523 121.429 240.222 121.214 240.868C121.214 240.922 121.214 240.922 121.16 240.976C121.106 241.138 121.052 241.299 120.998 241.461C120.729 242.376 120.46 243.345 120.137 244.26C120.029 244.637 119.922 245.067 119.76 245.444C119.706 245.66 119.599 245.875 119.545 246.09C119.114 247.49 118.63 248.89 118.091 250.289C117.984 250.558 117.876 250.881 117.768 251.151C117.284 252.55 116.746 253.95 116.207 255.403C114.646 259.495 112.816 263.694 110.77 268.054C110.447 268.646 110.07 269.292 109.693 269.884C109.693 269.884 109.693 269.884 109.693 269.938C109.693 269.992 109.64 269.992 109.64 270.046C109.263 270.638 108.94 271.176 108.509 271.715L108.455 271.768C108.078 272.307 107.702 272.791 107.271 273.33C107.163 273.437 107.109 273.545 107.002 273.653C106.571 274.137 106.14 274.622 105.656 275.106C104.795 275.967 103.826 276.829 102.695 277.259C102.587 277.313 102.48 277.367 102.372 277.367H102.318C102.318 277.367 102.318 277.367 102.265 277.367C102.157 277.421 102.103 277.421 101.995 277.421C101.888 277.421 101.78 277.475 101.619 277.475H101.565C101.457 277.475 101.349 277.475 101.242 277.475C100.488 277.421 99.8959 277.098 99.4652 276.667C99.4114 276.613 99.4114 276.613 99.3576 276.56C99.1961 276.344 99.0345 276.129 98.873 275.86V275.806C98.7115 275.483 98.5501 275.106 98.4424 274.675C98.2809 274.137 98.1732 273.545 98.1194 272.953C98.0655 272.522 98.0117 272.145 98.0117 271.768C97.9579 271.445 97.9579 271.122 97.9041 270.853C97.8503 270.261 97.7964 269.615 97.7426 269.023C97.8502 268.915 97.8502 268.754 97.7964 268.538Z" fill="#C9A18A"/>
<path d="M87.0837 195.111C84.9304 205.877 83.4769 216.805 82.6695 227.733C81.8081 239.846 82.0234 250.505 84.9304 262.24C85.8456 265.955 90.3137 280.974 81.7004 278.605C75.6712 276.936 71.9567 268.915 68.7268 264.07C60.5442 251.689 57.6372 237.154 56.1299 222.673C54.3534 205.393 57.7987 190.266 62.3207 173.578L87.0837 195.111Z" fill="#DFBC9C"/>
<path d="M62.536 173.739C62.536 173.685 62.536 173.577 62.5898 173.47C61.1363 184.667 60.0597 195.756 59.5752 207.061C59.4675 210.076 59.952 213.198 60.0597 216.267C60.1674 219.712 60.3289 223.211 60.8134 226.656C61.6209 232.363 62.8052 238.015 64.3125 243.614C66.8965 253.142 70.4494 262.401 76.5863 270.261C77.6092 271.553 78.3628 273.06 79.924 273.814C85.2534 276.452 83.1539 268.915 82.7771 266.547C82.1311 262.832 81.1083 259.225 80.3546 255.565C76.3172 236.077 78.632 214.113 86.9223 195.972C84.8228 206.469 83.4769 217.128 82.6695 227.787C81.8081 239.899 82.0234 250.558 84.9304 262.294C85.8456 266.008 90.3137 281.028 81.7004 278.659C75.6712 276.99 71.9567 268.969 68.7268 264.124C60.5442 251.743 57.6372 237.208 56.1299 222.727C55.2686 214.275 55.6454 205.716 56.9374 197.318C57.5834 193.173 58.4448 189.027 59.4137 184.936C59.8982 182.89 60.4365 180.845 60.921 178.853C61.3517 177.13 62.2668 175.462 62.536 173.739Z" fill="#C9A18A"/>
<path d="M71.7415 177.561C60.7058 167.117 78.2552 146.661 88.322 161.411C90.9059 165.233 91.3904 174.17 88.0528 177.669C84.2845 181.598 75.6713 181.275 71.7415 177.561Z" fill="#FF9505"/>
<path d="M80.2469 169.271C80.4623 169.325 80.6238 169.325 80.7852 169.433C82.8309 170.402 81.3236 173.201 79.7086 173.685C78.0398 174.17 76.1018 173.416 75.7788 171.586C75.5634 170.294 76.8554 168.894 78.1474 169.163C78.4166 167.172 78.6319 165.18 78.9011 163.242C79.0088 162.273 79.0626 161.196 79.2779 160.281C79.7086 158.72 80.6238 159.958 80.5161 160.981C80.4084 162.111 80.2469 163.242 80.1393 164.372C80.0855 164.749 79.7086 169.325 79.5471 169.325C79.8162 169.217 80.0316 169.217 80.2469 169.271Z" fill="#FF9505"/>
<path d="M76.9092 160.712C77.3937 161.466 77.3399 162.488 76.8554 163.188C76.1555 164.319 74.4867 164.911 73.3024 164.103C70.6646 162.273 75.0251 157.966 76.9092 160.712Z" fill="#F8D7A8"/>
<path d="M71.9027 168.356C70.6107 169.325 70.826 165.933 72.118 166.956C72.4949 167.279 72.2795 168.087 71.9027 168.356Z" fill="#F8D7A8"/>
<path d="M137.686 51.2696C137.902 51.4311 138.063 51.5926 138.225 51.808C142.37 40.1801 149.314 29.5751 155.236 18.8623C157.443 14.8787 160.404 13.7482 164.388 15.7939C169.825 18.5932 175.208 23.2228 178.976 28.0677C187.051 38.4574 185.382 51.2158 179.084 62.09C181.399 68.5499 184.198 74.9022 187.32 81.0392C190.443 87.1761 194.695 92.7208 200.079 97.0813C201.048 97.835 209.984 102.949 210.738 101.011C207.131 110.216 201.371 117.484 195.503 125.236C183.983 140.417 168.694 152.69 150.983 159.796C142.101 163.349 132.734 165.61 123.206 166.579C117.768 167.172 112.331 167.333 106.894 167.172C98.9269 166.902 92.0363 166.041 84.6074 163.188C81.3775 161.95 78.2013 160.658 75.0791 159.258C66.3581 155.436 57.8526 151.022 49.7239 146.069C30.8824 134.495 12.4716 118.884 4.18131 97.7811C0.0900238 87.2837 -0.986618 75.8174 0.897528 64.7278C5.63481 63.8665 10.3183 61.9285 14.5711 59.6676C18.6085 57.5142 22.3768 54.8226 25.4991 51.485C26.4681 50.4621 33.8432 41.2568 33.6817 40.9338C28.1907 31.2977 34.7583 16.8167 41.8642 9.92609C45.4172 6.4808 54.1919 -1.91712 59.8444 0.397691C63.3435 1.79734 65.8736 9.54928 67.3809 12.8331C69.4804 17.5704 71.3107 22.4153 73.3564 27.2064C73.6794 27.9601 77.1785 37.327 77.2324 37.327C88.0527 37.973 98.7116 38.619 109.37 40.6646C118.953 42.4411 130.096 44.5944 137.686 51.2696Z" fill="#DFBC9C"/>
<path d="M42.887 117.43C49.2393 132.665 71.1492 141.332 86.2224 135.033C98.1194 130.081 95.4278 111.562 91.7672 102.088C90.1522 97.8886 87.4606 93.9588 83.6384 91.4825C78.632 88.1987 73.2487 85.1841 67.1118 86.0454C60.6518 86.9067 53.8151 89.9752 49.4547 94.874C44.6635 100.257 39.9262 110.27 42.887 117.43Z" fill="white"/>
<path d="M120.406 94.2821C119.222 86.9608 128.158 81.7929 131.603 89.7063C133.326 93.6899 130.634 99.1809 126.059 99.773C122.775 100.258 120.891 97.4582 120.406 94.2821Z" fill="#053C5E"/>
<path d="M47.1398 65.643C49.4008 71.6185 41.6489 80.1241 37.4499 73.1258C33.0895 65.7507 44.0714 57.622 47.1398 65.643Z" fill="#053C5E"/>
<path d="M83.7462 92.9363C84.6613 92.0211 85.2535 90.783 84.9843 89.5987C84.8767 89.168 84.6613 88.7912 84.446 88.4143C82.3465 85.0229 78.2014 82.2774 74.1101 83.1387C69.9111 84 67.5425 87.3915 70.3956 91.3751C71.7414 93.2593 73.841 94.6589 76.1019 95.0896C78.4167 95.5203 80.8392 95.0358 82.7771 93.7438C83.154 93.5284 83.477 93.2593 83.7462 92.9363Z" fill="#053C5E"/>
<path d="M51.7156 102.357C51.8232 101.872 52.3077 101.603 52.7922 101.711C53.2767 101.818 53.5459 102.303 53.4382 102.787C52.8999 104.994 53.3844 107.471 54.8917 109.57C56.399 111.67 58.5523 112.962 60.8133 113.177C69.9649 113.984 71.6875 99.7725 74.3253 93.9048C74.5406 93.4741 75.0251 93.2588 75.4558 93.4741C75.8864 93.6895 76.1018 94.1739 75.8865 94.6046C71.5799 104.133 70.5032 111.131 72.7103 115.384C73.9485 117.753 76.1018 119.206 79.4394 119.906C81.4312 120.337 84.069 119.529 84.9303 117.537C85.1457 117.107 85.6302 116.891 86.0609 117.107C86.4915 117.322 86.7068 117.807 86.4915 118.237C85.8455 119.691 84.4459 120.821 82.8309 121.359C81.6466 121.736 80.3546 121.844 79.0626 121.575C74.433 120.66 68.5114 116.245 69.265 110.97C69.0497 112.692 65.7659 113.984 64.3663 114.415C63.1819 114.792 61.8899 114.953 60.6518 114.846C57.8525 114.577 55.2147 113.015 53.4382 110.485C51.6617 108.063 51.0157 105.048 51.7156 102.357Z" fill="#053C5E"/>
<path d="M81.539 99.2885C81.2698 103.218 86.2224 98.9116 83.3154 97.8888C82.4541 97.5658 81.5928 98.481 81.539 99.2885Z" fill="#E9D6C9"/>
<path d="M62.2667 93.0436C61.9976 96.9734 66.9502 92.6668 64.0433 91.644C63.1819 91.321 62.3206 92.29 62.2667 93.0436Z" fill="#E9D6C9"/>
<path d="M77.663 104.294C77.5015 103.433 78.3629 102.464 79.1703 102.464C81.3775 102.41 80.5161 105.317 78.6858 105.156C78.2552 105.102 77.7707 104.725 77.663 104.294Z" fill="#E9D6C9"/>
<path d="M56.1838 95.897C56.0223 95.0357 56.8835 94.0667 57.691 94.0667C59.8982 94.0128 59.0368 96.9198 57.2065 96.7583C56.722 96.7045 56.2376 96.3815 56.1838 95.897Z" fill="#E9D6C9"/>
<path d="M80.0317 111.239C79.8702 110.378 80.7315 109.409 81.539 109.409C83.7461 109.355 82.8848 112.262 81.0545 112.101C80.57 112.101 80.0855 111.724 80.0317 111.239Z" fill="#E9D6C9"/>
<path d="M55.9147 101.173C55.7532 100.312 56.6145 99.3425 57.422 99.3425C59.6291 99.2887 58.7678 102.196 56.9375 102.034C56.5068 101.98 56.0224 101.603 55.9147 101.173Z" fill="#E9D6C9"/>
</svg>
