<svg width="87" height="75" viewBox="0 0 87 75" fill="none" xmlns="http://www.w3.org/2000/svg">
<path fill-rule="evenodd" clip-rule="evenodd" d="M44.0621 35.7147C42.6214 37.4378 38.7939 36.1971 38.5847 33.9608C38.414 32.1355 40.2341 27.9492 42.1408 23.5637C44.8615 17.3061 47.7585 10.643 45.2992 9.8555C30.2072 5.02289 13.0841 18.598 8.32421 25.6998C7.41396 35.0118 12.1101 55.5736 28.9347 60.961C30.4494 61.446 31.3696 57.2181 32.3941 52.5117C33.4029 47.8771 34.5127 42.7784 36.3906 41.259C38.0954 39.8797 41.9539 40.7891 41.7384 42.9714C41.621 44.16 40.9521 46.2876 40.2023 48.6724C38.5919 53.7948 36.6084 60.1037 38.916 60.8427C40.4191 61.324 41.7823 57.0667 43.1455 52.8095C44.5087 48.5522 45.8719 44.295 47.375 44.7763C49.2541 45.378 48.2552 49.8069 47.2622 54.2102C46.2693 58.6127 45.2821 62.9896 47.1831 63.4898C48.7735 63.9084 49.961 60.1298 51.2131 56.1453C52.7079 51.3891 54.2948 46.3394 56.7694 47.7845C58.4307 48.7546 57.3204 52.5347 56.1711 56.4477C54.9158 60.7217 53.6138 65.1544 55.8259 66.2574C57.9409 67.3119 58.8388 63.7396 59.8427 59.7449C61.0434 54.9676 62.3959 49.5862 66.1638 50.7927C68.7256 51.613 68.587 54.681 68.4551 57.5992C68.3355 60.2457 68.2215 62.769 70.1323 63.3809C74.1501 64.6674 82.4582 40.8122 77.8332 39.3313C75.4558 38.57 74.0299 40.4124 72.6441 42.203C71.334 43.8959 70.0597 45.5425 68.0509 44.8993C62.9912 43.2791 66.0187 35.9034 68.4423 29.999C70.0598 26.0584 71.4082 22.7732 69.9042 22.2916C68.0253 21.69 66.2619 26.5499 64.4986 31.4097C62.7353 36.2696 60.972 41.1294 59.0931 40.5278C57.4869 40.0134 58.8278 35.5485 60.236 30.8598C61.7928 25.6762 63.4317 20.2191 61.2613 19.5241C59.0909 18.8291 56.9444 24.1237 54.9054 29.1529C53.0612 33.702 51.3049 38.0339 49.6987 37.5196C48.5315 37.1458 49.863 33.2997 51.3443 29.0208C53.2012 23.657 55.2936 17.6131 52.9943 16.8769C51.1142 16.2749 48.88 22.8515 46.9772 28.4525C45.8375 31.8074 44.8166 34.8122 44.0621 35.7147ZM28.9555 31.1375C30.031 29.8275 30.279 27.004 30.279 27.004C30.279 27.004 32.6826 21.3777 30.6459 19.0046C27.8424 15.7379 22.4122 19.3998 20.3738 23.0036C18.3354 26.6075 19.9816 31.4638 22.8267 33.0731C24.9042 34.2481 27.3627 33.0774 28.9555 31.1375Z" fill="#FFBB5F"/>
</svg>
