<svg width="293" height="278" viewBox="0 0 293 278" fill="none" xmlns="http://www.w3.org/2000/svg">
<path d="M252.429 125.987C230.401 116.896 216.426 91.4911 220.53 68.0086C222.348 70.5023 224.115 72.996 225.933 75.5417C224.115 67.2293 230.453 59.4883 236.791 53.8775C243.129 48.2666 250.506 42.3441 251.753 33.9797C252.273 30.6028 251.701 27.1739 251.026 23.849C249.415 15.7964 246.61 7.17226 239.752 2.6524C248.532 -1.29599 259.182 -0.82841 267.495 4.00316C275.807 8.78279 281.626 17.7706 282.561 27.3298C284.068 25.5634 285.159 23.4334 285.678 21.1994C292.328 29.252 293.419 40.8894 290.614 50.9162C287.808 60.995 281.574 69.723 274.768 77.6198C268.586 84.7372 261.728 91.6469 258.403 100.531C255.13 109.363 256.741 120.948 264.845 125.78L252.429 125.987Z" fill="#FF9505"/>
<path d="M135.795 55.6959C135.38 54.2932 136.679 52.9944 137.925 52.1632C146.134 46.4484 154.914 41.5649 164.161 37.6685C166.188 41.0454 166.551 45.0977 166.863 48.9941C167.227 53.9296 167.538 58.917 166.759 63.8005C165.928 68.6841 163.902 73.5156 160.265 76.8406L135.795 55.6959Z" fill="#FF9505"/>
<path d="M266.56 185.317C262.715 193.889 256.741 201.37 252.896 209.943C249.467 217.528 247.805 225.944 248.065 234.308C248.324 242.205 250.247 250.465 247.441 257.843C246.922 259.245 246.09 260.7 244.688 261.168C242.662 261.843 240.635 260.077 239.285 258.466C235.284 253.738 231.907 248.491 229.206 242.88C227.076 238.412 225.413 233.737 224.27 228.957C223.855 227.191 223.283 225.165 221.621 224.489C220.478 224.022 219.179 224.437 217.984 224.749C217.932 224.749 217.828 224.801 217.776 224.801C200.216 230.1 181.41 231.451 163.278 228.593C162.811 228.541 162.291 228.438 161.824 228.386C160.992 230.931 160.005 233.373 158.914 235.815C152.057 251.141 140.211 264.181 125.561 272.441C117.041 277.221 106.338 280.338 97.7143 275.766C94.5452 274.052 91.7398 271.039 91.7918 267.454C91.8437 264.96 93.2464 262.674 94.6491 260.648C98.4936 255.141 102.91 250.05 107.793 245.426C113.612 239.919 120.417 234.62 122.392 226.931C122.599 226.152 122.703 225.269 122.651 224.385C122.599 222.151 121.716 220.021 119.638 219.554C118.443 219.294 117.248 219.71 116.054 220.073C95.5843 226.411 79.9985 214.982 67.5299 200.851C63.5296 196.331 59.789 191.499 56.3602 186.876C51.7884 180.797 47.84 174.251 45.7619 166.874C44.8267 163.497 44.3072 159.964 42.9045 156.743C42.1252 154.873 40.9303 153.107 39.4756 151.808C38.3846 150.821 37.0339 150.041 35.5792 149.678C31.3711 148.639 27.1109 151.028 23.4223 153.366C24.1497 149.314 25.916 145.418 28.5656 142.197C24.0977 140.742 18.9025 141.989 15.5775 145.314C15.3697 139.495 17.6556 133.676 21.7079 129.52C18.1752 129.053 14.5385 129.728 11.3694 131.442C13.3436 114.454 18.0193 97.8292 25.0848 82.2435C27.7864 76.3209 30.9035 70.4503 35.2156 65.5668C40.203 59.852 46.697 55.6438 53.5028 52.2669C71.1666 43.5389 91.48 40.2659 110.962 43.1233C122.288 44.7858 133.302 48.4744 143.329 53.8775C159.122 62.3977 168.577 75.9053 173.513 92.9976C174.396 96.0109 175.175 99.2319 176.994 101.778C177.409 102.349 177.825 102.817 178.344 103.284C179.695 102.765 181.046 102.297 182.345 101.985C190.709 99.8034 198.71 101.258 207.853 101.83C220.842 102.661 234.245 103.856 246.194 109.311C259.027 115.129 262.403 126.819 266.04 139.079C270.82 154.925 273.781 169.16 266.56 185.317Z" fill="#FFC474"/>
<path d="M49.5544 28.8884C47.0606 27.8493 44.463 26.8103 41.7615 26.8622C39.6314 38.1878 39.4237 49.9291 41.19 61.3067C41.242 61.5664 41.2939 61.8262 41.4498 61.9821C41.7096 62.2938 42.1771 62.3457 42.5927 62.3457C49.8661 62.4496 57.2433 62.5016 64.2049 60.5274C68.4131 59.3325 72.5173 57.3063 75.7384 54.3451C80.4141 50.085 80.9336 48.0069 76.3618 43.7468C68.7248 36.7851 58.9578 32.7848 49.5544 28.8884Z" fill="#FF9505"/>
<path d="M138.393 93.7247C141.406 97.3094 146.913 96.8418 150.758 95.1274C152.524 94.3481 153.044 91.8544 152.368 90.2439C151.589 88.4775 149.719 87.4904 147.796 88.0099C145.043 88.7373 142.03 88.9451 139.38 89.9841C137.77 90.6595 137.25 92.3739 138.393 93.7247Z" fill="#053C5E"/>
<path d="M127.743 102.973C130.081 107.649 135.484 110.973 140.731 109.259C146.498 107.337 149.719 100.271 148.991 94.5046C148.628 91.7511 144.523 91.5433 144.575 94.5046C144.627 98.9725 145.147 104.272 140.263 106.506C136.003 108.48 131.691 105.467 129.353 101.986C128.678 100.999 127.171 101.882 127.743 102.973Z" fill="#053C5E"/>
<path d="M161.979 97.6214C161.772 99.6995 161.72 101.933 160.473 103.7C158.81 106.09 155.589 106.973 153.303 104.947C150.55 102.453 150.394 98.2448 149.822 94.8679C149.355 92.3223 144.991 92.8937 145.303 95.4914C145.978 101.414 148.628 108.739 155.745 108.843C161.46 108.947 165.252 102.401 162.863 97.4136C162.655 96.8941 162.031 97.2058 161.979 97.6214Z" fill="#053C5E"/>
<path d="M49.1907 164.796C47.84 184.642 35.0596 202.306 18.9544 213.995C13.0318 218.307 6.48584 222.047 1.91402 227.762C0.926928 229.009 -0.00826615 230.568 0.303448 232.178C0.874925 234.828 4.25186 235.503 6.95338 235.503C33.9686 235.555 60.88 223.398 78.4399 202.825L49.1907 164.796Z" fill="#FF9505"/>
<path d="M94.6491 79.2823C93.8698 81.776 94.3373 84.1139 95.4283 86.3998C96.3635 88.374 99.1689 88.6337 100.727 87.3869C102.494 86.0361 102.494 83.6463 101.091 81.9838C100.572 81.4124 101.195 82.2955 100.831 81.6721C100.779 81.5163 100.312 80.737 100.416 80.8928C100.26 80.6331 99.7404 79.4901 99.6884 79.1784C98.8572 76.8405 95.4283 76.7886 94.6491 79.2823Z" fill="#053C5E"/>
<path d="M153.044 69.2036C152.264 71.6973 152.732 74.0352 153.823 76.3211C154.758 78.2953 157.563 78.555 159.122 77.3082C160.888 75.9574 160.888 73.5676 159.486 71.9051C158.966 71.3336 159.59 72.2168 159.226 71.5934C159.174 71.4376 158.706 70.6583 158.81 70.8141C158.655 70.5544 158.135 69.4114 158.083 69.0997C157.252 66.7099 153.875 66.6579 153.044 69.2036Z" fill="#053C5E"/>
<path d="M116.469 102.037C111.534 100.531 105.663 101.206 100.572 101.154C95.3245 101.102 89.6616 100.427 84.4664 101.466C83.2195 101.726 83.2195 103.752 84.4664 103.96C89.6616 104.895 95.3245 104.219 100.572 104.115C105.663 104.012 111.586 104.635 116.469 103.076C116.989 102.921 116.989 102.193 116.469 102.037Z" fill="#053C5E"/>
<path d="M117.3 105.83C112.884 107.129 108.988 109.674 105.04 111.96C100.727 114.454 96.4674 117 92.2073 119.545C90.2331 120.74 92.0514 123.857 93.9737 122.611C98.1818 119.961 102.39 117.311 106.546 114.558C110.339 112.064 114.443 109.674 117.56 106.298C117.768 106.09 117.612 105.778 117.3 105.83Z" fill="#053C5E"/>
<path d="M167.331 92.0629C171.227 91.855 175.227 89.4652 178.864 88.0625C183.02 86.452 187.228 84.8934 191.436 83.4907C194.19 82.5556 192.579 78.5552 189.878 79.8021C185.774 81.6204 181.721 83.4387 177.669 85.309C174.188 86.9715 169.668 88.3742 166.967 91.2316C166.707 91.4914 166.915 92.1148 167.331 92.0629Z" fill="#053C5E"/>
<path d="M171.331 96.8943C174.708 97.5697 178.5 96.4787 181.877 96.1151C185.774 95.6994 189.722 95.2838 193.618 94.8162C195.593 94.5565 195.697 91.5433 193.618 91.6472C189.722 91.855 185.929 92.2706 182.085 92.894C178.552 93.4655 174.24 93.6733 171.175 95.6475C170.707 95.9592 170.759 96.7385 171.331 96.8943Z" fill="#053C5E"/>
<path d="M121.197 211.605C122.288 215.761 123.898 220.333 122.548 224.229C122.496 221.995 121.612 219.865 119.534 219.398C118.339 219.138 117.144 219.553 115.95 219.917C95.4803 226.255 79.8946 214.826 67.426 200.695C63.4257 196.175 59.6851 191.343 56.2562 186.72C51.6844 180.641 47.736 174.095 45.6579 166.718C44.7228 163.341 44.2033 159.808 42.8006 156.587C42.0213 154.717 40.8264 152.95 39.3717 151.652L39.4236 151.444C51.2688 164.951 70.3873 169.212 88.2589 170.718C103.689 172.017 120.106 171.601 133.458 163.705C121.612 176.225 116.833 194.98 121.197 211.605Z" fill="#FF9505"/>
<path d="M182.241 101.778C179.903 108.999 176.942 115.961 173.513 122.87C167.538 134.975 159.901 147.028 150.342 156.639C149.719 157.263 148.576 156.432 149.095 155.652C156.68 144.534 164.265 133.676 169.876 121.364C172.733 115.026 175.019 108.376 176.838 101.57C177.253 102.141 177.669 102.609 178.188 103.076C179.591 102.557 180.942 102.141 182.241 101.778Z" fill="#FF9505"/>
<path d="M223.959 171.394C226.504 163.549 230.66 156.796 234.349 149.522C234.713 148.795 233.83 148.067 233.206 148.639C227.543 154.198 223.751 162.147 220.893 169.472C217.88 177.161 216.01 185.317 215.179 193.526C214.399 201.786 214.815 210.151 216.322 218.307C216.685 220.385 217.153 222.567 217.672 224.749C217.724 224.749 217.828 224.697 217.88 224.697C219.075 224.334 220.374 223.97 221.517 224.438C221.569 224.438 221.621 224.49 221.673 224.49C222.036 223.762 222.452 223.035 222.816 222.256C222.4 220.853 221.984 219.398 221.621 217.892C219.854 210.255 219.335 202.358 219.699 194.513C220.114 186.668 221.465 178.875 223.959 171.394Z" fill="#FF9505"/>
<path d="M163.122 228.541C162.655 228.489 162.135 228.386 161.668 228.334C160.836 230.879 159.849 233.321 158.758 235.763C159.174 228.957 159.278 222.151 159.07 215.345C158.706 203.708 156.524 192.227 155.901 180.641C155.901 180.174 156.524 180.174 156.628 180.537C160.629 191.291 161.72 203.344 162.551 214.722C162.863 219.346 163.07 223.97 163.122 228.541Z" fill="#FF9505"/>
<path d="M233.518 75.1258C230.349 80.7367 232.531 90.5557 236.583 95.1794C237.726 96.4783 239.804 95.0236 239.337 93.517C238.453 90.5037 237.103 87.6463 236.479 84.5812C235.856 81.516 236.323 78.3988 235.752 75.3856C235.492 74.2946 233.985 74.2426 233.518 75.1258Z" fill="#FFC474"/>
<path d="M265.936 43.6948C264.637 51.4876 262.352 58.6051 257.884 65.2031C256.845 66.7616 259.442 68.6839 260.585 67.1773C265.676 60.5274 268.482 52.1111 267.183 43.6948C267.079 43.0194 266.04 43.0713 265.936 43.6948Z" fill="#FFC474"/>
<path d="M248.844 55.6436C245.519 60.5791 243.493 67.0731 243.908 73.0996C244.064 74.9699 246.61 74.866 246.766 73.0476C247.285 67.229 248.22 61.9818 250.454 56.5268C250.922 55.4358 249.519 54.6565 248.844 55.6436Z" fill="#FFC474"/>
<path d="M249.623 107.389C250.299 103.284 250.351 99.1281 251.39 95.0239C252.533 90.7118 254.455 86.8154 256.585 82.9189C257.728 80.8408 254.715 79.3342 253.416 81.2045C248.636 88.0103 245.311 99.1801 247.649 107.44C247.909 108.324 249.467 108.376 249.623 107.389Z" fill="#FFC474"/>
<path d="M259.546 11.4325C262.767 13.7184 264.326 16.6277 265.417 20.2644C265.78 21.5112 267.91 21.3034 267.755 19.9007C267.391 15.5367 264.222 11.6922 260.273 9.97779C259.338 9.66608 258.715 10.861 259.546 11.4325Z" fill="#FFC474"/>
<path d="M277.781 34.4993C279.392 39.279 279.34 44.1105 277.573 48.8382C277.106 50.189 279.236 50.7085 279.704 49.3577C281.522 44.3183 281.626 38.9153 280.119 33.824C279.704 32.2654 277.262 32.9927 277.781 34.4993Z" fill="#FFC474"/>
<path d="M52.3597 35.2783C56.1523 39.4864 59.9447 43.6946 63.4256 48.1625C64.3087 49.3055 65.9713 48.0586 65.0361 46.9156C61.2956 42.4997 57.3991 38.3954 52.8792 34.7588C52.5156 34.499 52.048 34.9666 52.3597 35.2783Z" fill="#FFC474"/>
</svg>
