<svg width="88" height="93" viewBox="0 0 88 93" fill="none" xmlns="http://www.w3.org/2000/svg">
<path d="M84.1007 69.8082C85.4588 64.6733 79.2674 59.0218 74.5562 58.8367C71.196 58.7047 67.7813 60.6847 65.2443 60.2457C53.7829 49.7062 43.01 41.5429 33.6765 25.2018C32.8637 17.2419 33.4936 6.45134 25.1284 5.44759C18.6538 4.6707 17.0667 9.34294 17.3183 13.6839C17.4117 15.2953 15.0582 17.6547 13.4453 17.7665C8.13385 18.1347 3.27196 20.3045 4.20203 25.8473C5.79507 35.3412 14.6883 35.448 22.605 35.9733C26.2438 36.2147 28.0387 38.6731 32.1379 43.3857C40.975 53.5449 46.1594 59.5049 53.8851 66.562C54.3762 67.199 52.645 69.3741 52.2516 70.0554C49.7237 74.4334 51.0315 80.5462 54.2024 84.1916C58.8033 89.4808 65.0325 87.7998 68.5648 82.1431C70.7177 78.6955 70.5578 75.164 74.6429 75.1798C78.4791 76.1443 83.0166 73.9074 84.1007 69.8082Z" fill="#FFA186"/>
</svg>
