<svg width="72" height="72" viewBox="0 0 72 72" fill="none" xmlns="http://www.w3.org/2000/svg">
<rect width="72" height="72" rx="8" fill="#E2EDF4"/>
<path d="M29 43H16.75C16.2859 43 15.8408 42.8156 15.5126 42.4874C15.1844 42.1592 15 41.7141 15 41.25V30.75C15 30.2859 15.1844 29.8408 15.5126 29.5126C15.8408 29.1844 16.2859 29 16.75 29H29V16.75C29 16.2859 29.1844 15.8408 29.5126 15.5126C29.8408 15.1844 30.2859 15 30.75 15H41.25C41.7141 15 42.1592 15.1844 42.4874 15.5126C42.8156 15.8408 43 16.2859 43 16.75V29H55.25C55.7141 29 56.1592 29.1844 56.4874 29.5126C56.8156 29.8408 57 30.2859 57 30.75V41.25C57 41.7141 56.8156 42.1592 56.4874 42.4874C56.1592 42.8156 55.7141 43 55.25 43H43V55.25C43 55.7141 42.8156 56.1592 42.4874 56.4874C42.1592 56.8156 41.7141 57 41.25 57H30.75C30.2859 57 29.8408 56.8156 29.5126 56.4874C29.1844 56.1592 29 55.7141 29 55.25V43Z" stroke="#44BBA4" stroke-width="4" stroke-linecap="round" stroke-linejoin="round"/>
</svg>
