<svg width="72" height="72" viewBox="0 0 72 72" fill="none" xmlns="http://www.w3.org/2000/svg">
<rect width="72" height="72" rx="8" fill="#E2EDF4"/>
<path d="M13.25 21.125H41.25C43.1065 21.125 44.887 21.8625 46.1997 23.1753C47.5125 24.488 48.25 26.2685 48.25 28.125V49.125C48.25 49.5891 48.0656 50.0342 47.7374 50.3624C47.4092 50.6906 46.9641 50.875 46.5 50.875H18.5C16.6435 50.875 14.863 50.1375 13.5503 48.8247C12.2375 47.512 11.5 45.7315 11.5 43.875V22.875C11.5 22.4109 11.6844 21.9658 12.0126 21.6376C12.3408 21.3094 12.7859 21.125 13.25 21.125V21.125Z" stroke="#44BBA4" stroke-width="4" stroke-linecap="round" stroke-linejoin="round"/>
<path d="M48.25 32.5L60.5 25.5V46.5L48.25 39.5" stroke="#44BBA4" stroke-width="4" stroke-linecap="round" stroke-linejoin="round"/>
</svg>
