<svg width="48" height="48" viewBox="0 0 48 48" fill="none" xmlns="http://www.w3.org/2000/svg">
<path d="M23.9999 2.18188C11.9472 2.18188 2.18176 11.9473 2.18176 24.0001C2.18176 36.0529 11.9472 45.8183 23.9999 45.8183C36.0527 45.8183 45.8181 36.0529 45.8181 24.0001C45.8181 11.9473 36.0527 2.18188 23.9999 2.18188ZM34.7155 17.1291L31.1348 34.003C30.8709 35.1995 30.1583 35.4898 29.1642 34.9268L23.7096 30.9062L21.0791 33.44C20.7888 33.7303 20.5425 33.9766 19.9794 33.9766L20.3665 28.4253L30.475 19.2933C30.9149 18.9062 30.3782 18.6863 29.7976 19.0734L17.3049 26.9385L11.9208 25.2581C10.7507 24.8886 10.7243 24.088 12.1671 23.525L33.2023 15.4136C34.1788 15.0617 35.0322 15.6511 34.7155 17.1291Z" fill="#053C5E"/>
</svg>
