<svg width="48" height="48" viewBox="0 0 48 48" fill="none" xmlns="http://www.w3.org/2000/svg">
<path d="M30.14 4H17.86C6.66 4 4 6.66 4 17.86V30.14C4 41.34 6.66 44 17.86 44H30.14C41.34 44 44 41.34 44 30.14V17.86C44 6.66 41.34 4 30.14 4ZM36.3 32.54H33.38C32.28 32.54 31.94 31.64 30 29.66C28.24 28 27.48 27.76 27.06 27.76C26.48 27.76 26.3 27.92 26.3 28.76V31.38C26.3 32.08 26.08 32.52 24.22 32.52C21.14 32.52 17.72 30.64 15.32 27.18C11.7 22.1 10.72 18.26 10.72 17.5C10.72 17.08 10.86 16.68 11.7 16.68H14.64C15.38 16.68 15.66 17 15.94 17.8C17.38 22 19.78 25.6 20.76 25.6C21.14 25.6 21.3 25.42 21.3 24.5V20.2C21.2 18.24 20.14 18.06 20.14 17.36C20.14 17 20.42 16.68 20.88 16.68H25.46C26.08 16.68 26.3 17 26.3 17.76V23.54C26.3 24.16 26.56 24.38 26.76 24.38C27.12 24.38 27.44 24.16 28.1 23.48C30.2 21.14 31.7 17.52 31.7 17.52C31.9 17.1 32.22 16.7 33 16.7H35.86C36.74 16.7 36.94 17.16 36.74 17.78C36.38 19.48 32.82 24.5 32.86 24.5C32.54 25 32.42 25.22 32.86 25.8C33.16 26.22 34.18 27.1 34.86 27.88C36.1 29.3 37.06 30.48 37.32 31.3C37.54 32.12 37.14 32.54 36.3 32.54Z" fill="#053C5E"/>
</svg>
