<svg width="56" height="56" viewBox="0 0 56 56" fill="none" xmlns="http://www.w3.org/2000/svg">
<path d="M13.125 22.75C16.5077 22.75 19.25 20.0077 19.25 16.625C19.25 13.2423 16.5077 10.5 13.125 10.5C9.74226 10.5 7 13.2423 7 16.625C7 20.0077 9.74226 22.75 13.125 22.75Z" stroke="#FF9505" stroke-width="4" stroke-linecap="round" stroke-linejoin="round"/>
<path d="M13.125 45.5C16.5077 45.5 19.25 42.7577 19.25 39.375C19.25 35.9923 16.5077 33.25 13.125 33.25C9.74226 33.25 7 35.9923 7 39.375C7 42.7577 9.74226 45.5 13.125 45.5Z" stroke="#FF9505" stroke-width="4" stroke-linecap="round" stroke-linejoin="round"/>
<path d="M29.75 28L18.1796 35.9166" stroke="#FF9505" stroke-width="4" stroke-linecap="round" stroke-linejoin="round"/>
<path d="M50.7499 13.6316L35.9481 23.7591" stroke="#FF9505" stroke-width="4" stroke-linecap="round" stroke-linejoin="round"/>
<path d="M50.75 42.3684L18.1794 20.0833" stroke="#FF9505" stroke-width="4" stroke-linecap="round" stroke-linejoin="round"/>
</svg>
