<svg width="56" height="56" viewBox="0 0 56 56" fill="none" xmlns="http://www.w3.org/2000/svg">
<path d="M46.375 28C48.7912 28 50.75 26.0412 50.75 23.625C50.75 21.2088 48.7912 19.25 46.375 19.25C43.9588 19.25 42 21.2088 42 23.625C42 26.0412 43.9588 28 46.375 28Z" stroke="#FF9505" stroke-width="4" stroke-linecap="round" stroke-linejoin="round"/>
<path d="M9.625 28C12.0412 28 14 26.0412 14 23.625C14 21.2088 12.0412 19.25 9.625 19.25C7.20875 19.25 5.25 21.2088 5.25 23.625C5.25 26.0412 7.20875 28 9.625 28Z" stroke="#FF9505" stroke-width="4" stroke-linecap="round" stroke-linejoin="round"/>
<path d="M20.125 17.5C22.5412 17.5 24.5 15.5412 24.5 13.125C24.5 10.7088 22.5412 8.75 20.125 8.75C17.7088 8.75 15.75 10.7088 15.75 13.125C15.75 15.5412 17.7088 17.5 20.125 17.5Z" stroke="#FF9505" stroke-width="4" stroke-linecap="round" stroke-linejoin="round"/>
<path d="M35.875 17.5C38.2912 17.5 40.25 15.5412 40.25 13.125C40.25 10.7088 38.2912 8.75 35.875 8.75C33.4588 8.75 31.5 10.7088 31.5 13.125C31.5 15.5412 33.4588 17.5 35.875 17.5Z" stroke="#FF9505" stroke-width="4" stroke-linecap="round" stroke-linejoin="round"/>
<path d="M40.0828 34.0929C37.8879 32.8738 36.2631 30.8374 35.5619 28.4265L35.5617 28.4267C35.0858 26.7894 34.0913 25.3508 32.7277 24.3271C31.3641 23.3034 29.7051 22.75 28 22.75C26.2949 22.75 24.6359 23.3034 23.2723 24.3271C21.9087 25.3508 20.9142 26.7894 20.4383 28.4267L20.4381 28.4265C19.7369 30.8374 18.1121 32.8738 15.9172 34.0929C14.3361 34.95 13.1454 36.3826 12.592 38.0938C12.0385 39.805 12.1648 41.6635 12.9445 43.2841C13.7243 44.9047 15.0978 46.1631 16.7802 46.7985C18.4627 47.4339 20.3252 47.3975 21.9815 46.6968C25.838 45.1155 30.162 45.1155 34.0185 46.6968C35.675 47.3982 37.5379 47.4352 39.2208 46.8C40.9038 46.1648 42.2778 44.9062 43.0577 43.2852C43.8376 41.6642 43.9637 39.8052 43.4098 38.0937C42.856 36.3822 41.6646 34.9496 40.0828 34.0929H40.0828Z" stroke="#FF9505" stroke-width="4" stroke-linecap="round" stroke-linejoin="round"/>
</svg>
