<svg width="56" height="56" viewBox="0 0 56 56" fill="none" xmlns="http://www.w3.org/2000/svg">
<path d="M9.1875 26.25H46.8125" stroke="#FF9505" stroke-width="4" stroke-linecap="round" stroke-linejoin="round"/>
<path d="M46.8125 42H9.1875V14C9.1875 12.6076 9.74062 11.2723 10.7252 10.2877C11.7098 9.30312 13.0451 8.75 14.4375 8.75H41.5625C42.9549 8.75 44.2902 9.30312 45.2748 10.2877C46.2594 11.2723 46.8125 12.6076 46.8125 14V42Z" stroke="#FF9505" stroke-width="4" stroke-linecap="round" stroke-linejoin="round"/>
<path d="M46.8125 42V47.25C46.8125 47.7141 46.6281 48.1592 46.2999 48.4874C45.9717 48.8156 45.5266 49 45.0625 49H39.8125C39.3484 49 38.9033 48.8156 38.5751 48.4874C38.2469 48.1592 38.0625 47.7141 38.0625 47.25V42" stroke="#FF9505" stroke-width="4" stroke-linecap="round" stroke-linejoin="round"/>
<path d="M17.9375 42V47.25C17.9375 47.7141 17.7531 48.1592 17.4249 48.4874C17.0967 48.8156 16.6516 49 16.1875 49H10.9375C10.4734 49 10.0283 48.8156 9.70006 48.4874C9.37187 48.1592 9.1875 47.7141 9.1875 47.25V42" stroke="#FF9505" stroke-width="4" stroke-linecap="round" stroke-linejoin="round"/>
<path d="M18.375 36.75C19.8247 36.75 21 35.5747 21 34.125C21 32.6753 19.8247 31.5 18.375 31.5C16.9253 31.5 15.75 32.6753 15.75 34.125C15.75 35.5747 16.9253 36.75 18.375 36.75Z" fill="#FF9505"/>
<path d="M37.625 36.75C39.0747 36.75 40.25 35.5747 40.25 34.125C40.25 32.6753 39.0747 31.5 37.625 31.5C36.1753 31.5 35 32.6753 35 34.125C35 35.5747 36.1753 36.75 37.625 36.75Z" fill="#FF9505"/>
</svg>
