<svg width="56" height="56" viewBox="0 0 56 56" fill="none" xmlns="http://www.w3.org/2000/svg">
<path d="M28 50.75V19.25" stroke="#FF9505" stroke-width="4" stroke-linecap="round" stroke-linejoin="round"/>
<path d="M28 33.25L17.5 28" stroke="#FF9505" stroke-width="4" stroke-linecap="round" stroke-linejoin="round"/>
<path d="M28 28L38.5 22.75" stroke="#FF9505" stroke-width="4" stroke-linecap="round" stroke-linejoin="round"/>
<path d="M28.9791 39.6433C30.5853 40.7154 32.396 41.4436 34.2972 41.7821C36.1985 42.1206 38.1492 42.0621 40.0267 41.6102C41.9043 41.1583 43.668 40.3228 45.207 39.1563C46.7461 37.9898 48.0271 36.5175 48.9696 34.832C49.9121 33.1464 50.4956 31.2841 50.6835 29.3621C50.8715 27.4401 50.6597 25.5001 50.0615 23.6639C49.4634 21.8277 48.4918 20.1351 47.2079 18.6926C45.924 17.2501 44.3555 16.0888 42.601 15.2818C42.204 15.0988 41.8899 14.7736 41.7209 14.3704C40.5863 11.6679 38.6788 9.36064 36.2378 7.73811C33.7968 6.11559 30.931 5.25003 28 5.25003C25.069 5.25003 22.2032 6.11559 19.7622 7.73811C17.3212 9.36064 15.4137 11.6679 14.2791 14.3704C14.1101 14.7736 13.796 15.0988 13.399 15.2818C11.6442 16.0886 10.0754 17.2498 8.79118 18.6924C7.50696 20.1349 6.53512 21.8275 5.93678 23.6639C5.33844 25.5002 5.12654 27.4405 5.31441 29.3626C5.50228 31.2848 6.08586 33.1474 7.02844 34.8331C7.97102 36.5188 9.25221 37.9912 10.7914 39.1578C12.3307 40.3244 14.0946 41.1598 15.9724 41.6116C17.8502 42.0634 19.8011 42.1218 21.7025 41.7831C23.6039 41.4443 25.4147 40.7158 27.0209 39.6433C27.3104 39.449 27.6513 39.3452 28 39.3452C28.3487 39.3452 28.6896 39.449 28.9791 39.6433Z" stroke="#FF9505" stroke-width="4" stroke-linecap="round" stroke-linejoin="round"/>
</svg>
