<svg width="72" height="64" viewBox="0 0 72 64" fill="none" xmlns="http://www.w3.org/2000/svg">
<path d="M9.26979 54.7084V63.8435H7.18096V60.0981H3.08066V63.8435H0.991821V54.7084H3.08066V58.3102H7.18096V54.7084H9.26979Z" fill="#053C5E"/>
<path d="M15.7763 64.0001C14.8394 64.0001 13.9927 63.7956 13.2362 63.3867C12.4884 62.9778 11.8995 62.4166 11.4697 61.7032C11.0485 60.9811 10.8379 60.172 10.8379 59.2759C10.8379 58.3798 11.0485 57.575 11.4697 56.8616C11.8995 56.1395 12.4884 55.574 13.2362 55.1651C13.9927 54.7562 14.8394 54.5518 15.7763 54.5518C16.7133 54.5518 17.5557 54.7562 18.3036 55.1651C19.0514 55.574 19.6403 56.1395 20.0701 56.8616C20.4999 57.575 20.7148 58.3798 20.7148 59.2759C20.7148 60.172 20.4999 60.9811 20.0701 61.7032C19.6403 62.4166 19.0514 62.9778 18.3036 63.3867C17.5557 63.7956 16.7133 64.0001 15.7763 64.0001ZM15.7763 62.1991C16.3093 62.1991 16.7907 62.0773 17.2205 61.8337C17.6503 61.5814 17.9855 61.2334 18.2262 60.7897C18.4755 60.346 18.6001 59.8414 18.6001 59.2759C18.6001 58.7104 18.4755 58.2058 18.2262 57.7621C17.9855 57.3184 17.6503 56.9747 17.2205 56.7311C16.7907 56.4788 16.3093 56.3527 15.7763 56.3527C15.2434 56.3527 14.762 56.4788 14.3322 56.7311C13.9024 56.9747 13.5629 57.3184 13.3136 57.7621C13.0729 58.2058 12.9526 58.7104 12.9526 59.2759C12.9526 59.8414 13.0729 60.346 13.3136 60.7897C13.5629 61.2334 13.9024 61.5814 14.3322 61.8337C14.762 62.0773 15.2434 62.1991 15.7763 62.1991Z" fill="#053C5E"/>
<path d="M30.4981 63.8435L30.4852 58.3624L27.829 62.8778H26.8878L24.2445 58.4799V63.8435H22.2846V54.7084H24.0124L27.3906 60.3852L30.7173 54.7084H32.4322L32.458 63.8435H30.4981Z" fill="#053C5E"/>
<path d="M41.588 62.1469V63.8435H34.5994V54.7084H41.4204V56.4049H36.6754V58.3885H40.8659V60.0328H36.6754V62.1469H41.588Z" fill="#053C5E"/>
<path d="M47.1569 54.7083C47.9563 54.7083 48.6483 54.8431 49.2328 55.1128C49.826 55.3825 50.2816 55.7653 50.5996 56.2612C50.9177 56.7571 51.0767 57.3444 51.0767 58.023C51.0767 58.6929 50.9177 59.2802 50.5996 59.7848C50.2816 60.2807 49.826 60.6635 49.2328 60.9332C48.6483 61.1942 47.9563 61.3247 47.1569 61.3247H45.3388V63.8434H43.25V54.7083H47.1569ZM47.0408 59.6021C47.6684 59.6021 48.1454 59.4672 48.4721 59.1975C48.7987 58.9191 48.9621 58.5276 48.9621 58.023C48.9621 57.5097 48.7987 57.1182 48.4721 56.8485C48.1454 56.5701 47.6684 56.4309 47.0408 56.4309H45.3388V59.6021H47.0408Z" fill="#EC4E20"/>
<path d="M59.5565 62.1468V63.8434H52.568V54.7083H59.3889V56.4048H54.6439V58.3884H58.8345V60.0327H54.6439V62.1468H59.5565Z" fill="#EC4E20"/>
<path d="M63.0882 56.4309H60.1999V54.7083H68.0653V56.4309H65.177V63.8434H63.0882V56.4309Z" fill="#EC4E20"/>
<path d="M0 27.0432C0 25.7488 0.616498 24.5338 1.65592 23.7797L33.3951 0.751905C34.7769 -0.250636 36.6362 -0.250635 38.018 0.751906L69.7572 23.7797C70.7966 24.5338 71.4131 25.7488 71.4131 27.0432V44.2484C71.4131 46.4661 69.6369 48.2639 67.4457 48.2639H3.9674C1.77627 48.2639 0 46.4661 0 44.2484V27.0432Z" fill="#FFCE8C"/>
<path d="M37.604 38.3082C32.7175 39.2956 28.9392 42.71 27.9761 37.4123C27.013 32.1146 30.3306 25.6448 35.2171 24.6574C40.1037 23.67 47.7065 28.1496 45.9579 33.4314C44.729 37.1434 42.4905 37.3208 37.604 38.3082Z" fill="#053C5E"/>
<path d="M27.2843 29.3022C26.7729 30.3734 25.3584 30.7111 24.1249 30.0565C22.8914 29.4019 21.8456 27.6056 22.3569 26.5344C22.8683 25.4633 24.7433 25.523 25.9768 26.1775C27.2103 26.8321 27.7957 28.2311 27.2843 29.3022Z" fill="#053C5E"/>
<path d="M32.1698 25.2374C30.8013 26.0578 28.9034 25.2608 27.9307 23.4572C26.9581 21.6537 27.279 19.5267 28.6475 18.7063C30.0161 17.886 31.914 18.683 32.8866 20.4865C33.8593 22.29 33.5383 24.4171 32.1698 25.2374Z" fill="#053C5E"/>
<path d="M37.7168 23.2313C36.1426 23.2244 34.8731 21.537 34.8813 19.4623C34.8895 17.3877 36.1723 15.7115 37.7466 15.7184C39.3209 15.7253 40.5904 17.4128 40.5822 19.4874C40.574 21.5621 39.2911 23.2383 37.7168 23.2313Z" fill="#053C5E"/>
<path d="M41.9195 24.9113C40.979 24.2681 40.9272 22.5916 41.8039 21.1669C42.6806 19.7421 44.1538 19.1085 45.0943 19.7518C46.0348 20.395 46.0865 22.0715 45.2098 23.4963C44.3331 24.9211 42.86 25.5546 41.9195 24.9113Z" fill="#053C5E"/>
</svg>
