<svg width="148" height="180" viewBox="0 0 148 180" fill="none" xmlns="http://www.w3.org/2000/svg">
<path d="M100.951 149.084C94.3715 138.388 104.645 117.772 111.329 107.815C116.607 100.005 139.581 81.3579 140.32 102.538C140.671 112.283 122.799 115.942 117.451 124.421C110.063 136.172 110.696 152.989 100.951 163.403V149.084Z" fill="#3F3D4A"/>
<path d="M54.4044 91.807C50.464 108.87 37.6928 136.102 38.3964 158.161C39.1353 182.261 53.3841 179.939 75.9008 177.687C95.6029 175.717 113.898 178.074 111.752 152.672C110.274 135.081 97.749 111.72 97.3972 97.2251L54.4044 91.807Z" fill="#7B7980"/>
<path d="M99.7545 8.70639C97.9602 7.33428 96.0955 6.0325 94.0902 4.80112C88.8128 1.49398 85.1187 0.403364 78.7507 0.0867232C69.4274 -0.405829 59.9985 1.21253 51.3788 4.76594C36.5319 10.8877 26.2939 22.8496 23.5496 38.7169C21.8961 48.3568 22.3183 58.3134 24.4292 67.883C25.6254 73.4066 27.4549 78.8599 30.5509 83.5743C33.2951 87.7258 36.9893 91.1737 40.9297 94.1994C48.6346 100.145 57.4654 104.684 66.7887 107.533C70.9402 108.8 74.7399 109.433 79.1025 108.976C86.3852 108.167 93.7031 106.83 100.282 103.452C106.826 100.11 110.696 94.8678 114.531 88.6054C122.271 76.0453 126.176 61.1984 125.191 46.6329C124.945 42.9387 124.382 39.1039 122.447 35.9375C120.582 32.8766 119.14 29.5695 117.24 26.5086C115.2 23.2015 112.455 21.0905 109.922 18.2408C106.685 14.617 103.413 11.521 99.7545 8.70639Z" fill="#A5A2AD"/>
<path d="M32.0989 37.6262C29.9176 49.3419 29.0028 61.7261 22.7052 71.7882C20.4887 75.3416 17.1112 78.7543 12.9245 78.7543C10.6025 78.7543 8.38599 77.6988 6.55651 76.2212C1.52544 72.14 -0.444767 65.1388 0.082968 58.6652C1.13844 46.07 8.84336 33.4747 17.2519 24.3977C21.8256 19.4369 27.1733 15.2151 32.9432 11.732C34.8783 10.571 36.7781 9.30445 38.7483 8.17862C40.6833 7.05279 43.9201 4.66039 46.2773 5.18812C46.6292 5.25849 46.981 5.4344 47.1921 5.71586C48.0716 6.91206 44.2016 9.83215 43.3924 10.6062C41.2463 12.7171 39.7334 14.6522 38.5372 17.326C35.7578 23.9755 33.4358 30.5897 32.0989 37.6262Z" fill="#3F3D4A"/>
<path d="M93.5271 3.78089C93.0697 4.27344 95.4621 5.89181 95.9195 6.314C96.9398 7.22874 97.9249 8.17865 98.8748 9.16376C100.493 10.8173 102.076 12.5764 103.624 14.2652C109.781 20.985 114.883 28.6548 118.718 36.9578C120.406 40.6167 121.884 44.4516 124.452 47.5829C127.9 51.7696 133.283 54.3378 138.736 54.4082C141.164 54.4434 143.803 53.8453 145.28 51.9103C146.16 50.7844 146.476 49.342 146.723 47.9347C147.849 41.6019 147.532 34.8468 144.682 29.0769C141.832 23.3774 136.766 19.1204 131.489 15.6021C126.247 12.1191 120.653 9.16378 114.812 6.77139C111.857 5.57519 108.867 4.51971 105.806 3.64015C104.293 3.18278 102.745 2.79578 101.197 2.40877C99.8951 2.09213 98.6637 2.26804 97.2916 2.23286C97.1157 2.23286 96.975 2.23286 96.7991 2.23286C95.427 2.40877 94.477 2.76061 93.5271 3.78089Z" fill="#3F3D4A"/>
<path d="M101.514 36.4301C101.408 37.8374 101.83 39.2447 102.112 40.6168C102.358 41.8481 103.484 42.6574 104.75 42.3055C105.947 41.9537 106.58 40.652 106.122 39.4909C105.595 38.1892 105.173 36.7819 104.293 35.6561C103.484 34.671 101.619 35.0579 101.514 36.4301Z" fill="#053C5E"/>
<path d="M38.7835 46.9847C37.5873 48.9549 38.1854 51.8399 39.1001 53.8453C40.2612 56.308 44.2368 54.5841 42.9702 52.1917C42.5128 51.3122 42.0906 50.4678 41.7388 49.5531C41.387 48.6383 41.2111 47.7939 40.6482 46.9847C40.2963 46.4218 39.1705 46.3514 38.7835 46.9847Z" fill="#053C5E"/>
<path d="M83.4298 71.542C83.465 69.5014 81.3892 68.3756 79.4894 68.4108C77.1674 68.4108 74.1769 69.6069 72.6992 71.4364C70.7994 73.7936 71.4678 77.1008 73.825 78.8247C75.936 80.3727 78.9265 80.7597 81.4244 80.1968C83.8872 79.6339 86.3148 78.3674 88.1794 76.6434C90.7829 74.2158 90.6774 69.8884 87.2295 68.2348C82.7262 66.0887 74.5287 68.657 73.6843 73.9696C73.2621 76.5731 75.6545 78.3674 78.0117 78.1914C79.6653 78.0859 82.8669 75.5176 84.0279 76.0453C83.465 75.6231 82.8669 75.1658 82.304 74.7436C82.3743 74.8491 82.4799 74.9898 82.5503 75.0954C82.2688 74.0399 81.9873 73.0196 81.7059 71.9642C81.7059 72.1049 81.7059 72.2456 81.6707 72.3864C81.9522 71.7179 82.2336 71.0142 82.5151 70.3458C82.0929 71.0494 81.1781 71.5068 80.4393 71.8586C79.9819 72.0697 79.5598 72.2104 79.0672 72.2808C77.9414 72.4215 78.0117 71.8586 78.645 73.5474C79.3135 75.3417 79.0672 74.7435 80.193 73.9344C80.6856 73.5825 81.2133 73.2307 81.7411 72.9493C82.304 72.6678 83.4298 72.4215 83.4298 71.542Z" fill="#053C5E"/>
<path d="M81.143 78.1211C81.0023 80.8301 81.917 83.4688 82.6207 86.0723C83.3595 88.8517 84.2039 91.5607 85.1538 94.3049C85.7871 96.1696 88.9887 95.3252 88.5313 93.355C87.3351 88.2184 85.6463 81.6745 81.8115 77.8748C81.5652 77.6285 81.1782 77.8396 81.143 78.1211Z" fill="#053C5E"/>
<path d="M75.4434 93.7772C77.2377 94.4457 79.1024 94.8679 80.9318 95.5012C82.6206 96.0993 84.3093 96.8381 86.1036 97.0492C87.7924 97.2603 88.4257 94.8327 86.8777 94.1642C83.7112 92.7569 78.9968 92.581 75.5841 92.8977C75.1268 92.9328 75.0564 93.6013 75.4434 93.7772Z" fill="#053C5E"/>
<path d="M93.7735 86.8463C92.0144 87.7258 90.6774 89.309 89.3053 90.6812C87.898 92.0884 86.1741 93.355 85.189 95.1141C84.2743 96.7677 86.7018 98.4212 88.074 97.2954C89.5868 96.0288 90.5015 94.0587 91.5922 92.4403C92.6477 90.8922 93.9494 89.309 94.442 87.5147C94.5475 87.0926 94.1957 86.6352 93.7735 86.8463Z" fill="#053C5E"/>
<path d="M96.9047 116.188C94.9697 112.529 88.8128 109.117 85.0483 112.142C82.48 114.218 81.9874 120.727 81.5652 123.717C80.0172 134.518 82.6911 145.425 83.7465 156.155C84.4854 163.579 84.3798 173.852 88.7424 179.763C89.7627 180.079 91.6977 180.079 92.718 179.763C97.0103 169.419 97.4676 157.95 97.6084 146.48C97.7139 136.911 100.634 124.351 96.6936 115.942C96.764 116.048 97.1862 116.681 96.9047 116.188Z" fill="#A5A2AD"/>
<path d="M68.5477 114.007C66.6127 110.348 60.4558 106.935 56.6913 109.961C54.123 112.037 53.6304 118.546 53.2082 121.536C51.6602 132.337 54.3341 143.244 55.3895 153.974C56.1284 161.398 56.0228 171.671 60.3854 177.581C61.4057 177.898 63.3407 177.898 64.361 177.581C68.6533 167.238 69.1106 155.768 69.2514 144.299C69.3569 134.729 72.277 122.169 68.3366 113.761C68.407 113.831 68.8292 114.5 68.5477 114.007Z" fill="#A5A2AD"/>
<path d="M99.684 174.943C97.2213 171.249 101.901 165.092 103.132 161.679C105.384 155.276 103.66 151.722 103.624 145.777C103.554 134.694 117.205 131.141 121.427 142.047C123.925 148.486 124.417 159.322 123.291 166.499C121.919 175.013 105.946 184.266 99.684 174.943Z" fill="#A5A2AD"/>
<path d="M51.0973 175.295C53.5601 171.6 48.8457 165.444 47.6143 162.031C45.3274 155.663 47.0514 152.074 47.0514 146.128C47.0866 135.046 33.4358 131.563 29.2491 142.47C26.7864 148.908 26.329 159.744 27.49 166.921C28.8621 175.471 44.8349 184.653 51.0973 175.295Z" fill="#A5A2AD"/>
</svg>
