<svg width="190" height="180" viewBox="0 0 190 180" fill="none" xmlns="http://www.w3.org/2000/svg">
<path d="M48.342 142.296C41.7416 143.378 35.2111 144.286 28.6108 145.159C24.9788 145.648 21.1723 146.067 17.6451 145.02C12.5813 143.483 8.87954 139.153 6.29527 134.543C-2.47028 118.967 -1.21305 99.4108 4.75869 82.5432C6.36513 78.0033 8.28586 73.5681 9.33353 68.8536C10.3812 64.139 10.4511 59.0753 8.46047 54.675C12.7559 56.4561 16.5974 59.215 20.404 61.9389C24.5597 64.9073 28.8203 68.0154 31.4395 72.3808C33.9888 76.6064 34.7571 81.6003 35.2111 86.4894C36.0842 95.9884 35.8397 105.592 37.1318 115.021C38.424 124.45 41.3575 134.019 47.6784 141.178L48.342 142.296Z" fill="#243743"/>
<path d="M149.547 5.18985C150.106 4.77078 150.735 4.28187 151.433 4.42156C153.04 4.73586 154.017 7.94873 154.367 9.27578C154.925 11.2664 155.1 13.3966 155.17 15.4571C155.31 19.543 155.065 23.6639 154.506 27.7498C154.297 29.2864 153.249 33.6866 151.328 33.966C150.56 34.0708 149.897 33.512 149.338 32.9532C145.392 29.0419 141.585 24.956 137.988 20.7304C136.731 19.2636 135.474 17.8667 136.836 16.0158C138.232 14.13 140.502 12.6633 142.283 11.1616C144.693 9.1361 147.103 7.14551 149.547 5.18985Z" fill="#243743"/>
<path d="M146.125 20.2416C144.553 18.3907 142.668 16.7842 140.468 15.5619C134.566 12.2094 127.895 10.3585 121.155 9.45051C113.647 8.43776 106.453 8.75206 98.9447 9.9045C92.4491 10.9173 86.4075 13.6761 80.6453 16.7842C69.0161 23.0703 58.5044 31.4517 49.8087 41.4046C41.1479 51.2877 34.2333 62.7772 29.868 75.2096C26.4106 85.0228 24.5947 95.4297 24.6296 105.872C24.6994 120.574 28.3663 135.66 37.3064 147.359C45.9323 158.674 58.9933 166.148 72.7877 169.675C86.5821 173.202 101.11 172.958 115.219 170.897C131.877 168.453 148.535 163.214 161.77 152.807C170.082 146.242 176.822 137.826 181.99 128.571C185.972 121.447 189.08 113.659 189.429 105.487C189.743 97.7695 187.473 90.2612 184.086 83.3815C182.34 79.8543 180.279 76.4668 178.114 73.1841C175.32 68.9934 172.387 64.9773 169.768 60.6818C166.869 55.9673 164.005 51.2178 161.107 46.5033C156.602 39.0997 152.76 31.312 148.535 23.7338C147.836 22.4417 147.033 21.2892 146.125 20.2416Z" fill="#FF9505"/>
<path d="M126.184 53.2432C125.486 52.1955 124.473 51.7066 123.495 51.0082C122.867 50.5891 121.924 49.6811 122.727 49.0874C123.705 48.3541 124.298 50.2399 124.543 50.9034C124.718 51.4621 125.486 51.7415 125.905 51.2526C126.533 50.5192 127.197 49.6113 127.93 48.9827C128.105 48.8779 128.14 48.7731 128.07 48.5985C128.28 49.0176 128.245 49.4366 128.035 49.8557C127.861 50.2748 127.546 50.6589 127.232 51.0082C127.022 51.2526 126.638 51.7066 126.359 51.8463C125.73 52.1955 125.451 51.7415 125.032 51.3225C124.194 50.5192 123.635 49.5065 123.286 48.4239C122.867 48.7382 122.482 49.0525 122.063 49.3668C123.146 49.9605 123.949 50.7986 124.368 51.986C124.543 52.5098 125.311 52.8591 125.73 52.3352C126.464 51.4971 127.232 50.7637 128.07 50.0653C127.616 49.7859 127.162 49.5414 126.708 49.262C126.533 49.8557 126.324 50.2049 125.975 50.6939C125.521 51.3574 126.464 52.3003 127.092 51.8114C127.651 51.3923 128.035 51.0082 128.314 50.3796C127.791 50.2399 127.302 50.1002 126.778 49.9605C126.778 50.0653 126.149 50.4843 126.079 50.624C125.905 50.9383 125.87 51.2875 125.975 51.6018C126.184 52.2304 126.813 52.4051 127.407 52.2654C127.686 52.1955 127.895 51.9511 127.965 51.7066C127.965 51.6717 128 51.6018 128 51.5669C128.28 50.5542 126.708 50.1002 126.429 51.1129C126.429 51.1478 126.394 51.2177 126.394 51.2526C126.568 51.078 126.778 50.8685 126.953 50.6939C127.197 51.3923 127.476 51.5669 127.791 51.2177C127.93 51.1129 128.07 51.0082 128.14 50.8685C128.349 50.5542 128.419 50.3446 128.419 49.9605C128.419 49.1922 127.232 48.7731 126.883 49.5414C126.743 49.8906 126.533 50.17 126.254 50.4145C126.638 50.7986 127.022 51.1828 127.372 51.532C127.791 50.9732 128.035 50.3796 128.245 49.716C128.489 48.8779 127.441 48.4239 126.883 48.9128C126.045 49.6113 125.276 50.3446 124.543 51.1828C124.997 51.2875 125.451 51.4272 125.905 51.532C125.346 49.9605 124.333 48.7382 122.832 47.935C122.238 47.6207 121.4 48.1445 121.609 48.8779C122.168 50.624 123.39 52.8591 125.206 53.5575C126.743 54.1512 128.14 52.4749 128.943 51.3574C129.711 50.2399 130.305 48.1794 128.908 47.2365C127.267 46.119 125.521 49.1223 124.648 50.1002C125.102 50.2049 125.556 50.3446 126.01 50.4494C125.591 49.2271 125.067 47.8651 123.74 47.3762C122.692 46.9571 121.47 47.2016 120.876 48.1794C120.282 49.1573 120.666 50.4145 121.295 51.2875C122.168 52.4749 123.809 52.8241 124.648 54.0464C125.381 54.9195 126.813 54.1163 126.184 53.2432Z" fill="#243743"/>
<path d="M122.692 61.3454C125.381 59.5993 126.918 56.5261 126.568 53.3132C126.464 52.2655 124.822 52.2655 124.927 53.3132C125.206 55.9673 124.089 58.4818 121.854 59.9485C120.981 60.5073 121.819 61.9391 122.692 61.3454Z" fill="#243743"/>
<path d="M129.851 60.5422C127.581 58.7961 126.499 56.1419 126.673 53.3132C126.743 52.2655 125.102 52.2655 125.032 53.3132C124.822 56.7356 126.324 59.8787 129.013 61.974C129.851 62.6026 130.689 61.1708 129.851 60.5422Z" fill="#243743"/>
<path d="M90.4237 1.5929C90.1443 0.964299 89.7601 0.265851 89.0966 0.0563163C87.5251 -0.397676 85.1853 2.01198 84.2773 3.02473C82.8455 4.56132 81.7629 6.34237 80.7501 8.15834C78.7595 11.7554 77.0833 15.527 75.7562 19.4034C75.2324 20.8701 74.1847 25.2354 75.7562 26.3879C76.3848 26.8419 77.2229 26.6323 77.9563 26.3879C83.2645 24.7116 88.5029 22.8258 93.6365 20.6606C95.4176 19.9272 97.1986 19.2637 96.8145 16.9937C96.4303 14.6888 95.0684 12.3141 94.1604 10.1838C93.0079 7.3202 91.7507 4.45655 90.4237 1.5929Z" fill="#243743"/>
<path d="M112.53 54.6402C107.675 55.5832 103.066 57.3642 98.805 59.9485C98.2113 60.2977 98.77 61.2406 99.3288 60.8564C103.38 58.1325 107.85 56.2118 112.634 55.0942C112.949 55.0244 112.844 54.6053 112.53 54.6402Z" fill="#053C5E"/>
<path d="M135.334 53.383C139.28 55.5832 143.331 57.5737 147.103 60.0882C148.081 60.7168 148.954 59.1802 148.011 58.5516C144.239 56.0371 140.118 53.6624 135.753 52.4052C135.159 52.2306 134.775 53.1037 135.334 53.383Z" fill="#053C5E"/>
<path d="M134.566 58.2023C136.626 60.1231 139.071 61.6247 141.41 63.2312C142.458 63.9645 143.541 62.1835 142.423 61.485C140.083 60.0532 137.744 58.4468 135.229 57.3642C134.67 57.1546 134.077 57.7483 134.566 58.2023Z" fill="#053C5E"/>
<path d="M134.391 62.393C135.299 64.6281 136.94 66.6536 138.233 68.6791C138.861 69.6569 140.258 68.6442 139.525 67.7013C138.058 65.8504 136.731 63.6502 134.95 62.0787C134.74 61.8692 134.251 62.0787 134.391 62.393Z" fill="#053C5E"/>
<path d="M113.018 57.7831C109.875 58.9356 107.117 61.1008 104.777 63.4755C104.043 64.2438 105.231 65.3962 105.929 64.6279C108.129 62.1834 110.644 60.4372 113.368 58.6213C113.787 58.3768 113.542 57.6085 113.018 57.7831Z" fill="#053C5E"/>
<path d="M114.555 50.5194C109.386 50.9385 104.497 52.4401 99.8526 54.7101C99.3288 54.9895 99.7828 55.7927 100.307 55.5133C104.812 53.2434 109.631 51.8115 114.625 50.9734C114.869 50.9385 114.799 50.5194 114.555 50.5194Z" fill="#053C5E"/>
<path d="M103.974 179.942C109.177 179.034 110.295 168.034 111.552 163.983C112.076 162.341 112.599 160.665 112.599 158.954C112.634 155.322 110.329 151.899 107.186 150.014C100.551 146.032 84.8011 147.325 86.1281 157.976C86.7218 162.935 91.2967 167.51 94.2302 171.281C96.3604 174.04 98.7701 179.628 102.891 179.977C103.275 180.012 103.624 180.012 103.974 179.942Z" fill="#243743"/>
<path d="M135.124 162.411C132.61 155.252 134.286 147.988 141.76 145.369C146.998 143.553 154.332 143.064 156.776 149.385C158.103 152.773 157.126 156.614 155.868 160.036C154.052 165.03 151.503 169.535 149.093 174.25C147.487 177.428 146.649 179.104 143.331 176.625C139.35 173.621 136.766 167.021 135.124 162.411Z" fill="#243743"/>
<path d="M140.048 29.8802C139.001 31.3818 138.128 34.3502 139.35 35.8868C139.769 36.4107 140.782 36.4107 141.201 35.8868C141.934 35.0138 141.829 34.1407 141.76 33.0581C141.69 32.2549 141.83 31.5215 142.039 30.7532C142.388 29.496 140.747 28.9023 140.048 29.8802Z" fill="#243743"/>
<path d="M103.555 31.5214C102.996 33.4072 103.45 36.0613 105.056 37.3535C105.894 38.017 107.152 37.6328 107.221 36.4455C107.291 34.6993 106.383 33.058 105.79 31.4865C105.405 30.4737 103.904 30.3689 103.555 31.5214Z" fill="#243743"/>
</svg>
