<svg width="171" height="180" viewBox="0 0 171 180" fill="none" xmlns="http://www.w3.org/2000/svg">
<path d="M115.16 159.119C119.357 158.48 124.361 154.116 127.752 151.642C133.09 147.722 137.899 142.357 140.568 136.325C145.988 124.093 139.539 114.558 132.339 105.19C124.194 94.571 120.553 83.4793 127.613 71.2201C131.255 64.9376 136.509 55.5973 144.849 56.0699C137.482 69.997 157.747 81.7002 164.53 91.7355C172.008 102.827 173.287 115.364 166.726 127.179C162.723 134.351 156.413 140.717 149.463 145.026C140.846 150.363 126.502 158.202 116.133 154.477L115.16 159.119Z" fill="#3F3D4A"/>
<path d="M75.491 174.325C75.0741 174.325 74.6849 174.325 74.2679 174.325C60.174 174.186 46.2746 171.156 32.0973 171.74C28.4001 171.907 -4.3745 175.326 1.04624 166.709C2.26938 164.763 5.27163 163.873 6.46698 162.011C7.80131 159.926 7.16192 159.981 7.52331 157.452C9.13563 146.694 6.74496 135.324 8.85766 124.788C10.3588 117.283 13.778 109.972 15.5849 102.438C17.3362 95.1271 20.3941 86.6763 25.0365 79.6432C28.2889 74.7228 32.3475 70.4974 37.2401 67.9122C40.4091 66.2443 43.9118 65.2713 47.8314 65.2157L72.0718 65.3547C83.6639 63.7424 101.372 71.943 109.85 79.2818C119.302 87.4546 127.197 98.5185 131.005 110.528C134.452 121.397 136.231 133.461 134.952 144.803C134.369 149.89 133.952 159.231 131.589 163.679C129.087 168.432 121.609 168.96 116.967 170.044C108.043 172.129 98.9531 173.352 89.8073 173.908C85.3318 174.186 80.7172 174.548 76.2416 174.159C73.2394 173.908 69.3754 172.352 66.3453 173.519C64.038 174.409 64.0658 177.022 61.7585 178.412C57.6165 180.914 45.1349 174.381 50.5556 170.712L75.491 174.325Z" fill="#7B7980"/>
<path d="M79.4662 28.5771C84.9425 21.6274 92.9207 14.3163 101.9 12.843C104.402 17.9024 100.649 52.1225 93.0597 47.9527L79.4662 28.5771Z" fill="#3F3D4A"/>
<path d="M48.3873 22.5447C43.3558 17.9023 52.3904 3.22464 55.5316 0C61.1469 3.72502 66.8179 12.6206 66.8456 19.5981L48.3873 22.5447Z" fill="#3F3D4A"/>
<path d="M92.8652 70.692C92.6984 71.2758 92.2259 72.1654 92.0869 72.8881C91.0027 78.3089 83.3303 85.0639 79.3273 88.5944C73.1282 94.0985 66.2063 95.3772 58.2003 96.517C48.0816 97.9625 42.1883 96.0722 33.7375 90.0955C30.6796 87.9272 27.2048 84.0076 25.0365 79.6988C28.2889 74.7784 32.3476 70.553 37.2401 67.9678C41.3821 69.6079 45.4129 71.665 48.1372 72.2766C57.1718 74.3059 66.7623 74.5561 75.9359 73.9445C81.8014 73.5275 87.3611 71.3592 92.8652 70.692Z" fill="#FF9505"/>
<path d="M17.4474 46.8685C17.7532 54.5132 19.2265 62.547 23.1739 69.1353C34.1544 87.399 59.4512 87.7604 78.0763 82.7844C90.0019 79.5876 113.353 65.3269 112.741 50.538C112.852 53.3734 105.097 50.4824 104.318 49.8986C101.399 47.7025 101.511 45.7288 101.094 42.4764C100.482 37.7784 100.454 34.7483 96.896 31.2457C88.3062 22.7949 75.1574 22.6559 64.6217 18.2359C60.1739 16.3734 53.3911 14.9557 48.8043 17.5688C44.1341 20.2374 43.05 25.7694 36.3227 24.7408C31.7637 24.0458 28.0109 19.5981 24.0079 23.4621C19.5601 27.7153 17.225 41.0308 17.4474 46.8685Z" fill="#7B7980"/>
<path d="M59.0898 39.78C57.4496 39.0016 54.9756 39.1128 53.5022 40.3082C51.195 42.1985 53.8358 46.2849 55.8651 47.23C57.6998 48.064 60.2851 48.0362 61.7029 46.4239C63.7044 44.1722 61.5083 41.4479 59.6457 40.1136C59.479 39.9746 59.2844 39.8912 59.0898 39.78Z" fill="#243743"/>
<path d="M35.7668 37.9174C35.0718 39.2239 34.4046 40.3915 34.0432 41.837C33.7375 43.0601 33.7097 44.3667 33.8765 45.5898C34.1822 47.9527 35.322 50.0654 36.9343 51.7611C40.1312 55.1248 45.4407 56.4035 49.7495 54.68C53.0853 53.3456 55.4204 50.3712 56.6991 47.0909C57.0883 46.118 55.8374 45.2284 55.1146 46.0902C53.4467 48.1195 52.446 50.5936 52.724 53.2345C52.9741 55.6529 54.2529 57.8212 55.9208 59.5448C59.2844 63.0474 64.7886 64.9655 69.4587 63.1308C70.4873 62.7416 71.4047 62.1022 72.183 61.3517C72.5722 60.9625 72.878 60.5455 73.156 60.1007C73.434 59.6281 73.5173 58.9888 73.6563 58.4606C73.7119 58.2104 73.3784 57.9602 73.156 58.1548C72.6834 58.5718 72.1274 58.8498 71.627 59.239C71.1267 59.6281 70.6263 60.0451 70.0981 60.4065C69.2086 60.9903 68.1244 61.4073 67.1236 61.5741C64.872 61.9632 62.5647 61.4073 60.5076 60.4343C56.588 58.544 53.3633 54.0128 55.198 49.6206C55.5316 48.7867 56.032 48.0361 56.6158 47.3411C56.0876 47.0076 55.5594 46.674 55.0312 46.3404C54.0583 48.8979 52.5016 51.1774 50.0831 52.5673C48.1928 53.6792 45.8855 53.9572 43.745 53.6236C39.2694 52.9009 35.4888 49.2314 34.9884 44.6725C34.8772 43.6439 34.9328 42.6154 35.0718 41.559C35.2386 40.3915 35.4888 39.1127 36.0169 38.0286C36.0169 37.8896 35.8224 37.7784 35.7668 37.9174Z" fill="#3F3D4A"/>
<path d="M86.805 58.3494C87.8892 59.2111 89.0011 60.0451 90.1965 60.7401C91.4196 61.435 92.6428 62.1022 93.8659 62.7972C95.0891 63.4921 96.2844 64.2427 97.3963 65.0767C98.0079 65.5214 98.5917 66.0218 99.1755 66.4666C99.787 66.9392 100.315 67.5229 100.927 68.0233C101.094 68.1623 101.344 67.9955 101.26 67.7731C100.76 66.4388 99.7036 65.1879 98.6751 64.2427C97.6187 63.2419 96.34 62.4636 95.0612 61.7686C93.7825 61.0458 92.4482 60.4065 91.1138 59.7949C89.7795 59.1555 88.3618 58.6274 87.0552 57.9046C86.8328 57.7656 86.5827 58.1548 86.805 58.3494Z" fill="#3F3D4A"/>
<path d="M84.4699 63.0474C85.971 65.6327 88.1671 67.7732 90.252 69.9136C91.3362 71.0256 92.4203 72.1375 93.4767 73.2495C94.0048 73.8055 94.5886 74.3336 95.1446 74.8618C95.7005 75.39 96.1731 76.0294 96.7291 76.5853C96.8403 76.6965 97.0627 76.5575 96.9793 76.3907C96.3677 75.0564 95.3947 73.7777 94.5052 72.6101C93.5878 71.4148 92.4759 70.3306 91.3918 69.2743C89.1957 67.0782 86.9995 64.8821 84.8034 62.686C84.6089 62.5192 84.3309 62.825 84.4699 63.0474Z" fill="#3F3D4A"/>
<path d="M81.6066 68.774C82.524 71.7484 84.0251 74.5283 85.3317 77.3637C86.666 80.3104 87.9447 83.2849 88.8065 86.3983C88.8899 86.6485 89.2791 86.5373 89.2513 86.2871C89.0567 83.0903 88.0003 80.0324 86.666 77.1692C85.3039 74.2503 83.8305 71.387 82.3572 68.5238C82.107 68.0512 81.4398 68.2736 81.6066 68.774Z" fill="#3F3D4A"/>
<path d="M29.095 35.6101C26.7321 33.5252 23.8411 32.2186 20.9222 31.1067C19.3377 30.5229 17.7532 29.9948 16.1408 29.5222C14.5007 29.0496 12.7216 28.577 10.9981 28.4102C10.6923 28.3824 10.5533 28.7716 10.8313 28.9384C13.639 30.5785 16.8914 31.4959 19.9215 32.58C22.9237 33.6642 25.8426 34.8873 28.8448 35.9715C29.095 36.0827 29.3174 35.8047 29.095 35.6101Z" fill="#3F3D4A"/>
<path d="M26.3985 38.112C25.5646 37.834 24.536 37.9452 23.6743 38.0008C22.5345 38.0842 21.3948 38.1954 20.255 38.3344C18.0589 38.6123 15.8907 38.9181 13.7224 39.2795C11.4985 39.6409 9.33018 40.1135 7.13409 40.5582C4.799 41.0308 2.4361 41.42 0.101011 41.9204C-0.0379827 41.9482 -0.0379895 42.1706 0.128802 42.1706C2.38049 42.0316 4.65999 41.698 6.91168 41.4478C9.13558 41.1976 11.3595 40.9752 13.5556 40.6416C15.7517 40.3359 17.92 40.0023 20.116 39.7243C21.2558 39.5853 22.3955 39.4185 23.5075 39.2517C24.4526 39.1127 25.5924 39.0571 26.4542 38.5845C26.6209 38.4733 26.5931 38.1676 26.3985 38.112Z" fill="#3F3D4A"/>
<path d="M6.57812 53.0954C9.38579 52.4838 11.9432 50.7881 14.4451 49.4537C17.225 47.9804 20.0605 46.7017 22.8403 45.2561C23.0349 45.1449 23.0071 44.7836 22.7569 44.8391C19.7825 45.3117 17.0304 46.8407 14.4173 48.2306C13.1108 48.9256 11.8043 49.6483 10.4977 50.3711C9.13559 51.0939 7.71787 51.8166 6.43913 52.7062C6.27234 52.8174 6.35573 53.151 6.57812 53.0954Z" fill="#3F3D4A"/>
<path d="M33.9041 100.826C46.8861 109.332 56.2265 86.2592 40.548 84.2855C30.0679 82.9234 25.092 95.0436 33.9041 100.826Z" fill="#3F3D4A"/>
<path d="M38.9914 88.8168C37.9906 90.179 37.1844 91.6523 36.6841 93.2646C36.4339 94.043 36.2949 94.8491 36.2671 95.6831C36.2671 96.2391 36.3505 97.2398 37.0455 97.3788C37.6292 97.49 37.796 96.8228 37.8516 96.3781C37.9072 96.0445 37.8238 95.6831 37.8516 95.3495C37.8794 94.9047 37.9906 94.46 38.074 94.0152C38.4632 92.3473 39.1304 90.7627 39.5473 89.0948C39.6585 88.7612 39.186 88.5666 38.9914 88.8168Z" fill="#243743"/>
<path d="M33.8765 93.1534C35.2386 93.9318 36.7953 94.3765 38.352 94.5989C39.325 94.7379 42.6052 95.3773 42.9388 93.9317C43.2446 92.514 39.9922 92.8198 39.2416 92.7364C37.5737 92.5696 35.9057 92.2638 34.21 92.1526C33.5985 92.1248 33.3205 92.8476 33.8765 93.1534Z" fill="#243743"/>
<path d="M32.8757 116.059C31.4857 125.177 31.4301 134.434 30.3182 143.58C29.7622 148.111 28.9005 152.587 27.4827 156.923C26.3708 160.343 24.9531 163.79 22.7014 166.625C21.3392 168.349 19.6157 169.739 17.5586 170.545C15.7517 171.24 13.8058 171.545 11.8877 171.601C9.80279 171.684 7.7457 171.434 5.74419 170.823C4.79904 170.545 3.88167 170.156 3.01991 169.683C2.18595 169.21 1.4632 168.599 0.740433 167.987C0.434648 167.709 0.0732514 168.126 0.240043 168.432C1.68557 171.128 5.04921 172.463 7.88468 172.991C10.9981 173.575 14.334 173.352 17.364 172.435C24.5083 170.239 27.3159 162.483 29.2062 156.006C33.0147 143.052 32.0139 129.403 33.0147 116.087C33.0425 116.004 32.8757 115.948 32.8757 116.059Z" fill="#3F3D4A"/>
<path d="M52.1401 123.12C54.1972 131.488 52.6683 140.3 51.8621 148.723C51.4451 153.198 51.195 157.674 50.6946 162.122C50.4722 164.262 50.1386 166.403 49.7216 168.488C49.4714 169.766 49.0545 170.99 48.7209 172.268C48.4985 173.13 48.3873 174.075 48.7487 174.909C49.1935 175.966 50.2498 176.688 51.195 177.244C53.8914 178.884 57.4775 180.163 60.7021 179.718C65.9283 178.996 67.4294 173.019 68.8193 168.793C71.4046 160.843 75.1574 153.337 78.66 145.776C80.5781 141.662 82.524 137.492 83.9418 133.183C85.2761 129.125 85.8877 124.899 86.1379 120.646C86.2491 118.478 86.3047 116.282 86.1101 114.114C86.0823 113.78 85.5819 113.752 85.5263 114.086C84.887 118.395 84.9147 122.759 84.1642 127.068C83.4136 131.488 81.7735 135.602 79.9944 139.688C78.1597 143.914 76.1304 148.083 74.1845 152.253C72.2663 156.367 70.5428 160.537 68.8471 164.763C67.8464 167.292 67.1792 169.933 66.2063 172.463C65.4001 174.548 64.3715 176.716 62.3422 177.856C59.757 179.329 56.3099 178.217 53.7524 177.216C52.4737 176.716 50.8892 175.966 50.0274 174.826C49.4992 174.103 49.6383 173.241 49.805 172.435C50.083 171.156 50.5 169.933 50.7224 168.654C51.1116 166.542 51.3617 164.401 51.5841 162.261C52.0845 157.785 52.2791 153.31 52.6961 148.834C53.0853 144.553 53.6135 140.272 53.8359 135.991C54.0304 131.932 53.9748 127.79 52.7795 123.871C52.6961 123.565 52.5849 123.287 52.4737 122.981C52.3903 122.787 52.0845 122.926 52.1401 123.12Z" fill="#3F3D4A"/>
<path d="M104.402 124.316C103.234 125.983 102.122 127.651 101.399 129.542C100.704 131.404 100.398 133.378 100.232 135.324C99.8703 139.271 100.204 143.219 100.176 147.166C100.148 149.835 99.5367 152.476 98.1468 154.755C96.9793 156.645 95.228 158.119 93.3932 159.37C90.4188 161.399 87.0829 162.844 84.1085 164.874C80.9394 167.014 78.382 169.85 77.0754 173.519C76.9642 173.853 76.992 174.214 77.27 174.464C78.4654 175.409 79.7997 175.493 81.2452 175.048C81.8012 174.881 81.7178 173.992 81.134 173.908C80.1333 173.769 79.1047 173.908 78.2708 173.269C78.3264 173.575 78.4098 173.881 78.4654 174.214C79.2715 171.907 80.6336 169.85 82.4406 168.182C84.1641 166.597 86.1934 165.374 88.2227 164.207C92.1979 161.955 96.5345 159.87 99.1476 155.95C100.232 154.338 100.927 152.559 101.288 150.669C101.788 148.139 101.566 145.581 101.455 143.024C101.316 139.911 101.232 136.769 101.622 133.684C102.011 130.598 102.789 127.123 104.596 124.538C104.735 124.343 104.513 124.149 104.402 124.316Z" fill="#3F3D4A"/>
<path d="M85.4985 168.905C84.47 169.572 83.358 170.322 83.3024 171.657C83.2468 172.963 84.2198 174.186 85.5263 174.27C85.6931 174.27 85.8599 174.159 85.7765 173.964C85.5819 173.547 85.4429 173.213 85.1371 172.88C84.8314 172.546 84.609 172.185 84.4422 171.74C84.1364 170.823 85.026 169.683 85.6653 169.127C85.8321 169.016 85.6931 168.794 85.4985 168.905Z" fill="#3F3D4A"/>
<path d="M90.4744 169.35C89.6961 170.156 89.1123 171.045 88.9733 172.185C88.8621 173.019 89.1123 174.798 90.1409 174.909C90.2798 174.937 90.4466 174.854 90.5022 174.715C90.808 174.02 90.1964 173.186 90.1409 172.463C90.0297 171.49 90.3354 170.489 90.8636 169.655C91.0304 169.377 90.6968 169.099 90.4744 169.35Z" fill="#3F3D4A"/>
<path d="M7.82908 164.651C6.85612 165.485 6.13334 166.403 5.68856 167.626C5.27158 168.821 4.85462 170.545 5.60518 171.657C5.71638 171.823 5.99435 171.796 6.07775 171.629C6.57812 170.573 6.35574 169.294 6.60593 168.182C6.85612 167.098 7.43987 165.93 8.21823 165.124C8.49622 164.846 8.10706 164.401 7.82908 164.651Z" fill="#3F3D4A"/>
<path d="M13.8892 165.346C12.3602 165.986 11.3317 167.376 11.2205 169.044C11.1093 170.545 11.9989 172.741 13.6668 173.019C14.0004 173.074 14.2227 172.769 14.1393 172.463C13.778 171.323 12.8884 170.545 12.7772 169.294C12.666 167.987 13.3888 166.931 14.3061 166.069C14.5841 165.791 14.3617 165.152 13.8892 165.346Z" fill="#3F3D4A"/>
<path d="M55.1702 170.573C54.642 171.907 54.3918 173.38 53.8914 174.742C53.7246 175.215 52.3069 177.494 53.3633 177.717C54.4752 177.939 55.1424 175.66 55.3926 174.881C55.8373 173.603 56.2543 172.074 56.0319 170.739C55.9763 170.295 55.3648 170.1 55.1702 170.573Z" fill="#3F3D4A"/>
<path d="M60.7855 171.657C61.0079 172.991 60.9801 174.409 60.6466 175.715C60.4798 176.383 60.2296 177.05 59.8404 177.606C59.4512 178.217 58.7562 178.745 58.6728 179.496C58.645 179.718 58.784 179.996 59.0342 179.996C60.7299 180.108 61.6751 177.661 62.0087 176.355C62.4256 174.742 62.0365 173.019 61.5083 171.49C61.3693 171.101 60.7021 171.24 60.7855 171.657Z" fill="#3F3D4A"/>
<path d="M80.8561 38.5289C80.8283 38.6401 80.8005 38.7513 80.7449 38.8903C80.8561 38.6957 80.9673 38.5289 81.0785 38.3343C80.745 38.7235 80.5781 39.1127 80.3558 39.5853C80.05 40.1968 79.6886 40.725 79.6886 41.42C79.6608 42.3373 80.8005 43.0879 81.6067 42.5319C82.2183 42.1149 82.5519 41.5312 82.9132 40.8918C83.08 40.586 83.1634 40.2524 83.219 39.9188C83.3024 39.4185 83.219 39.0293 83.1078 38.5289C82.8576 37.3892 81.1341 37.4726 80.8561 38.5289Z" fill="#243743"/>
<path d="M50.3609 27.1593C50.2219 27.6597 50.0829 28.1323 50.0273 28.6327C49.9439 29.3554 50.0829 30.106 50.5277 30.662C50.9169 31.1623 51.8899 31.1623 52.3068 30.662C52.7238 30.1338 52.8906 29.3832 52.8072 28.6882C52.7516 28.1323 52.5848 27.6597 52.4458 27.1315C52.14 26.1308 50.6389 26.1308 50.3609 27.1593Z" fill="#243743"/>
</svg>
