<svg width="188" height="180" viewBox="0 0 188 180" fill="none" xmlns="http://www.w3.org/2000/svg">
<path d="M54.4246 122.307C59.019 121.158 65.7416 118.051 64.0187 112.206C63.208 109.369 60.8094 107.24 58.2758 105.754C51.2153 101.632 43.0738 101.497 36.385 96.1935C31.7568 92.545 28.2773 86.971 28.4462 81.0591C26.3855 81.701 24.7639 83.6266 24.5612 85.7886C19.9669 79.7416 19.7642 70.7218 24.1221 64.5059C13.751 64.0667 4.66358 72.6812 1.35293 82.5455C-0.0659172 86.7683 -0.640213 91.464 0.981328 95.5854C2.77178 100.146 6.92698 103.288 10.9133 106.193C8.17692 106.531 5.30544 105.855 3.00825 104.335C6.28512 113.794 15.1698 120.517 24.8315 123.118C34.4932 125.719 44.7292 124.706 54.4246 122.307Z" fill="#CD5E24"/>
<path d="M160.399 13.8328C169.149 6.19802 182.155 1.16449 185.195 5.2859C187.222 8.05604 184.08 20.1162 183.675 23.5282C182.864 29.9131 181.851 36.2641 180.634 42.5813C180.567 42.8854 180.499 43.2232 180.297 43.4259C180.06 43.6624 179.722 43.7299 179.418 43.7637C170.534 45.1826 160.737 39.9801 154.825 33.5615C149.251 27.5145 153.474 19.8798 160.399 13.8328Z" fill="#CD5E24"/>
<path d="M129.793 32.6156C118.138 38.5612 104.996 41.6354 91.889 41.4665C89.5243 41.4327 94.0848 11.9747 94.7605 9.33973C96.1793 3.7319 96.078 -1.9097 103.172 0.623954C108.476 2.51575 112.293 7.48171 116.854 10.5559C119.388 12.3125 135.738 29.5752 129.793 32.6156Z" fill="#CD5E24"/>
<path d="M84.8285 168.589C80.5719 167.98 76.2141 167.947 71.9575 168.521C69.0522 168.926 66.1132 169.568 63.2079 169.366C61.485 169.23 59.7622 168.791 58.0393 168.791C56.3502 168.791 54.6273 169.23 52.9382 169.095C50.8775 168.926 48.5465 167.237 46.4858 166.629C43.9521 165.852 41.5536 165.413 39.6618 163.386C26.8246 149.806 32.027 122.983 43.9184 110.99C48.4114 106.463 53.9516 103.051 58.6136 98.6934C63.9511 93.6936 68.005 87.5453 71.2819 81.0591C74.4912 74.6405 74.1533 68.9313 76.0789 62.2425C81.0449 45.2163 90.7066 31.3656 106.517 23.7309C123.712 15.4205 141.684 11.6031 160.331 18.2582C176.614 24.0687 185.871 41.9394 187.526 59.1683C188.202 66.2288 187.898 73.2554 187.087 80.2821C185.938 90.4167 183.81 100.518 182.256 110.585C182.155 111.26 182.053 111.936 181.952 112.612C181.378 116.801 181.04 121.125 180.668 125.415C180.668 125.449 180.668 125.483 180.668 125.55C179.486 138.185 177.797 150.684 168.237 159.94C168.203 159.974 168.169 160.008 168.135 160.042C167.932 160.244 167.764 160.413 167.561 160.582C156.852 170.413 142.089 175.683 127.597 174.872C120.435 174.467 113.408 172.676 106.381 171.19C99.321 169.737 91.9565 169.602 84.8285 168.589Z" fill="#FF9505"/>
<path d="M133.035 42.0408C128.137 45.419 126.617 52.0403 126.988 57.9859C127.259 62.2087 128.306 66.499 130.873 69.8773C132.934 72.5798 135.839 74.5729 138.88 76.0256C142.292 77.6471 146.143 78.7619 149.825 77.8836C156.109 76.3972 159.825 69.7421 160.906 63.3573C161.649 58.9318 161.514 54.2699 159.791 50.1147C155.703 40.2166 142.19 35.7573 133.035 42.0408Z" fill="#FFC474"/>
<path d="M174.25 141.901C174.25 145.684 172.729 149.265 171.243 152.745C170.23 155.143 169.216 157.508 168.169 159.907C168.135 159.94 168.101 159.974 168.068 160.008C167.865 160.211 167.696 160.38 167.493 160.548C156.784 170.379 142.022 175.649 127.529 174.838C120.367 174.433 113.341 172.642 106.314 171.156C97.3616 169.264 88.3418 167.913 79.2544 167.068C79.1869 166.224 79.1531 165.379 79.1531 164.535C79.1531 157.846 83.9839 157.677 89.6255 157.136C92.1254 156.9 94.6928 156.63 96.99 155.616C100.064 154.231 102.395 151.63 105.03 149.535C106.854 148.117 108.848 146.867 110.402 145.144C112.597 142.678 113.645 139.401 114.591 136.259C117.057 128.219 119.556 120.145 122.023 112.105C123.273 108.051 124.556 103.963 126.82 100.382C128.813 97.3083 131.482 94.7071 134.488 92.6464C137.697 90.4168 141.346 88.7277 145.231 88.3898C149.116 88.052 153.203 89.2006 155.94 91.9707C158.845 94.9098 159.825 99.2339 160.196 103.355C160.568 107.477 160.433 111.666 161.615 115.652C164.385 125.111 174.216 132.07 174.25 141.901Z" fill="#FFC474"/>
<path d="M135.637 47.2095C139.184 50.0134 144.454 50.2837 148.812 49.9796C153.339 49.6756 153.17 42.4462 148.812 43.0205C144.792 43.5272 140.434 42.9192 136.515 43.8313C135.164 44.1353 134.421 46.2636 135.637 47.2095Z" fill="#243743"/>
<path d="M131.313 60.2494C132.36 64.5735 137.191 65.6207 140.907 63.9992C146.819 61.4317 146.751 54.7766 147.359 49.2364C147.494 48.1216 145.771 47.9864 145.467 48.9661C144.15 53.1551 145.299 58.7291 141.278 61.6344C138.069 63.9316 133.745 63.7965 131.752 60.0804C131.651 59.8102 131.245 60.0129 131.313 60.2494Z" fill="#243743"/>
<path d="M156.886 62.2425C153.237 65.2153 149.015 62.7155 147.967 58.6278C146.92 54.6078 148.136 50.4188 147.832 46.3649C147.731 44.9799 145.535 44.4393 145.231 46.0271C144.657 49.1351 144.488 52.7497 144.758 55.9253C144.961 58.4927 145.67 61.0939 147.393 63.1209C149.893 66.0599 156.109 67.3436 157.291 62.479C157.359 62.2087 157.055 62.0736 156.886 62.2425Z" fill="#243743"/>
<path d="M117.462 172.372C121.617 176.358 127.056 180.142 132.664 178.892C133.745 178.656 134.86 178.183 135.536 177.304C136.583 175.953 136.38 174.027 135.941 172.372C134.488 166.697 131.11 161.731 128.441 156.495C118.07 136.225 118.746 110.72 130.13 91.0248C131.245 89.0655 132.495 87.1399 132.968 84.9441C134.184 79.4714 130.536 74.2014 127.09 69.7759C124.455 66.3639 121.752 62.9181 118.273 60.3845C114.793 57.817 110.402 56.2293 106.145 57.0401C98.9157 58.4251 94.7268 65.891 91.7539 72.6136C89.2203 78.3228 86.8217 84.1671 85.7069 90.3154C83.1057 104.639 87.7339 119.199 92.2607 133.016C97.1253 147.677 106.314 161.663 117.462 172.372Z" fill="#FF9505"/>
<path d="M156.649 83.9982C151.548 88.2885 157.291 92.3086 158.913 96.6665C162.189 105.484 161.108 114.368 161.412 123.523C161.75 134.131 160.737 143.252 158.372 153.623C156.886 160.109 155.872 166.967 157.73 173.386C159.082 178.081 162.662 178.048 165.297 174.906C170.5 168.69 171.851 159.974 174.621 152.508C178 143.421 180.533 134.029 182.155 124.503C183.54 116.328 183.236 107.916 184.587 99.8082C186.04 91.2276 188.1 82.2415 187.29 73.4919C185.161 78.1539 178.844 78.1201 174.317 79.4376C173.067 79.8092 171.615 78.8633 170.297 78.8295C168.439 78.7958 166.277 79.5727 164.554 80.147C161.784 80.9916 158.879 82.1402 156.649 83.9982Z" fill="#FF9505"/>
<path d="M81.1124 99.7406C81.3151 108.456 81.653 117.172 84.6258 125.483C87.1594 132.543 91.1457 138.928 95.605 144.975C100.199 151.225 105.267 157.136 109.929 163.352C114.32 169.163 118.543 175.581 125.435 178.588C127.056 179.297 128.475 176.899 126.853 176.19C119.996 173.217 115.976 166.798 111.584 161.123C107.023 155.278 102.159 149.704 97.6995 143.792C93.3078 137.982 89.1864 131.8 86.45 125.043C83.2069 117.003 82.4299 108.355 81.7205 99.8082C81.6867 99.369 81.0787 99.369 81.1124 99.7406Z" fill="#CD5E24"/>
<path d="M124.049 176.899C127.664 180.142 132.495 181.155 136.785 178.419C138.542 177.304 136.954 174.534 135.13 175.615C132.022 177.473 127.833 178.115 124.489 176.325C124.151 176.088 123.712 176.595 124.049 176.899Z" fill="#CD5E24"/>
<path d="M136.954 176.73C137.765 174.669 136.887 171.899 136.245 169.872C135.468 167.372 134.387 164.94 133.171 162.609C130.434 157.407 127.765 152.306 125.941 146.698C122.327 135.583 121.245 123.625 122.529 112.037C122.631 111.159 121.11 110.956 120.975 111.835C119.32 123.219 120.266 134.638 123.678 145.617C125.367 150.988 127.664 156.055 130.265 161.021C131.583 163.521 132.968 166.021 134.116 168.622C134.725 170.041 135.231 171.46 135.637 172.946C135.974 174.23 136.11 175.615 136.751 176.764C136.819 176.831 136.92 176.798 136.954 176.73Z" fill="#CD5E24"/>
<path d="M182.628 99.4366C182.121 112.916 180.229 126.462 176.75 139.502C175.06 145.819 172.966 152.002 170.5 158.049C167.966 164.231 165.365 170.784 160.973 175.818C160.061 176.865 160.906 178.926 162.46 178.352C165.297 177.271 166.514 174.196 167.764 171.629C169.25 168.589 170.635 165.481 171.953 162.339C174.723 155.65 177.02 148.792 178.844 141.799C182.459 127.915 184.114 113.726 183.54 99.4028C183.506 98.8623 182.661 98.8623 182.628 99.4366Z" fill="#CD5E24"/>
<path d="M67.4308 105.011C72.2617 108.828 73.3765 115.483 73.4103 121.327C73.444 127.239 72.2279 133.016 70.1334 138.556C69.0524 141.428 67.7011 144.198 66.2484 146.867C65.2012 148.792 62.7351 151.562 62.7689 153.86C62.8027 155.92 64.5931 156.528 66.2822 157.001C68.951 157.711 71.6198 158.285 74.2886 158.961C79.3559 160.244 84.5246 161.798 88.7811 164.974C89.2203 165.278 90.3689 166.021 90.6391 166.595C91.281 168.048 90.4027 167.744 89.5243 167.845C87.869 168.014 86.2137 168.082 84.5583 168.183C81.2477 168.386 77.9033 168.487 74.5588 168.555C68.0389 168.656 61.519 168.352 55.0666 167.372C49.6277 166.562 43.9523 165.008 39.8646 161.123C32.2299 153.927 33.4798 140.516 36.1824 131.361C36.6891 129.604 34.0203 128.895 33.446 130.617C30.4056 139.637 29.5611 152.035 35.1014 160.278C42.1618 170.818 57.7354 171.46 69.1199 171.764C72.7684 171.865 76.3831 171.832 80.0316 171.663C83.6125 171.494 87.4636 171.561 91.0107 170.886C93.0377 170.48 94.7268 168.994 94.22 166.731C93.6457 164.163 90.6053 162.373 88.5446 161.123C83.5449 158.116 77.8019 156.765 72.1603 155.481C70.7077 155.143 69.2551 154.839 67.8024 154.468C67.5322 154.4 66.012 154.231 65.8769 153.961C65.539 153.353 66.6201 152.035 66.8903 151.562C68.6132 148.59 70.1672 145.549 71.4509 142.374C74.221 135.583 76.0453 127.982 75.3696 120.584C74.8291 114.639 73.0724 108.085 67.9375 104.504C67.5659 104.166 67.1268 104.74 67.4308 105.011Z" fill="#CD5E24"/>
<path d="M160.804 111.362C160.568 130.212 159.284 148.995 156.379 167.643C155.805 171.426 155.095 178.689 160.636 179.027C168.169 179.466 170.432 167.845 171.817 162.542C172.324 160.684 169.453 159.873 168.912 161.731C168 164.974 167.257 168.386 165.635 171.392C164.757 173.082 160.906 178.419 159.386 174.602C158.676 172.778 159.115 170.345 159.352 168.487C159.69 165.785 160.061 163.048 160.365 160.346C162.156 144.063 162.696 127.678 161.379 111.362C161.379 110.99 160.804 110.956 160.804 111.362Z" fill="#CD5E24"/>
<path d="M163.946 32.2777C163.777 33.8317 163.912 35.3857 164.25 36.9397C164.521 38.0545 165.804 38.7301 166.885 38.4261C168.034 38.1221 168.642 36.9059 168.372 35.7911C168.101 34.6087 168.034 33.4601 168.169 32.2777C168.27 31.1292 167.122 30.1495 166.041 30.1495C164.791 30.1495 164.081 31.1292 163.946 32.2777Z" fill="#243743"/>
<path d="M115.03 33.1223C115.03 33.1561 114.996 33.8656 115.03 33.3926C114.996 33.5615 114.962 33.7304 114.962 33.9331C114.928 34.3047 114.895 34.3723 114.928 34.0345C114.827 34.4736 114.759 34.9128 114.624 35.352C114.219 36.6357 115.097 38.1897 116.415 38.4937C117.766 38.7977 119.185 38.0883 119.556 36.7033C119.996 35.0479 119.827 33.494 118.948 32.0413C117.901 30.2509 115.063 31.0279 115.03 33.1223Z" fill="#243743"/>
<path d="M94.693 63.4924C92.5985 65.1815 92.7674 70.3502 94.7606 72.0731C95.9091 73.0865 97.4631 72.1068 97.2266 70.6204C97.024 69.4381 96.247 68.4246 96.0781 67.2084C95.8754 66.0598 96.1794 64.945 95.9091 63.7965C95.774 63.2222 95.0646 63.1546 94.693 63.4924Z" fill="#FFC474"/>
<path d="M98.2399 66.3639C97.4967 67.9516 97.294 69.6408 97.8346 71.3299C98.1386 72.242 99.0507 72.8163 99.9628 72.546C100.774 72.3095 101.551 71.2623 101.179 70.4177C100.774 69.4718 100.638 68.4922 100.909 67.5125C101.348 65.9247 98.9494 64.8099 98.2399 66.3639Z" fill="#FFC474"/>
<path d="M81.5177 81.5321C81.4164 83.3901 81.6529 85.0792 82.3961 86.7683C82.8015 87.7818 84.4568 87.3426 84.0514 86.2954C83.4433 84.7752 83.0717 83.1536 82.9704 81.4983C82.9366 80.5862 81.5515 80.62 81.5177 81.5321Z" fill="#FFC474"/>
<path d="M88.9161 84.6738C88.7134 86.194 89.1188 87.6129 90.0647 88.7952C90.943 89.8425 92.8686 88.7277 92.3957 87.444C92.1254 86.7007 91.7876 85.8562 91.9227 85.0792C92.0578 84.1671 91.6525 83.3225 90.6728 83.1874C89.6255 83.0523 89.0174 83.7617 88.9161 84.6738Z" fill="#FFC474"/>
</svg>
