<svg width="182" height="180" viewBox="0 0 182 180" fill="none" xmlns="http://www.w3.org/2000/svg">
<path d="M57.1093 124.791C56.5148 125.921 54.8799 124.613 54.4637 123.424C51.4318 114.893 51.9668 105.47 49.5591 96.7309C47.4486 89.1212 42.8412 81.9872 35.9747 78.1229C29.1082 74.2586 19.8637 74.2587 13.7106 79.193C11.7784 80.7387 10.203 82.7006 8.06278 83.9193C5.92257 85.138 2.8906 85.3758 1.22599 83.5626C0.245064 82.4925 -0.0521984 80.9468 0.00725195 79.4903C0.245053 72.7427 6.57652 67.9569 12.581 64.925C18.7638 61.8038 25.5114 59.3069 32.4374 59.7528C41.3252 60.3473 49.3807 65.8762 54.5529 73.0994C59.7548 80.3226 62.3706 89.1212 63.8272 97.8901C64.7784 103.627 65.4918 109.929 69.6533 113.971L57.1093 124.791Z" fill="#C9A18A"/>
<path d="M148.425 128.864C151.784 135.909 150.298 144.559 146.314 151.276C144.204 154.814 141.41 158.083 140.518 162.096C140.132 163.88 140.191 165.901 141.35 167.298C142.093 168.19 143.223 168.725 144.353 169.082C146.463 169.736 148.841 169.944 150.595 171.281C152.349 172.649 152.884 175.859 150.892 176.84C150.387 177.078 149.822 177.137 149.257 177.197C130.501 178.356 117.273 159.391 116.887 142.18C116.441 125.713 138.943 109.007 148.425 128.864Z" fill="#C9A18A"/>
<path d="M162.396 79.0742C164.744 74.5263 169.143 70.3648 174.226 70.8701C178.626 71.316 182.222 75.7747 181.658 80.1741C181.39 82.2845 179.815 84.5437 177.704 84.2761C177.11 84.2167 176.515 83.9194 175.921 84.068C175.296 84.2167 174.91 84.8112 174.553 85.3462C169.946 92.9262 167.568 102.022 161.563 108.74C158.561 112.099 145.66 121.641 141.202 116.141C139.656 114.239 138.289 108.651 136.921 106.094C135.821 104.014 135.584 101.041 137.486 99.644C138.467 98.9009 139.775 98.8117 140.994 98.6928C155.767 97.5038 156.421 90.6671 162.396 79.0742Z" fill="#C9A18A"/>
<path d="M84.5753 80.9766C75.1821 90.1319 67.1861 100.714 60.914 112.218C56.4255 120.481 52.7099 129.756 54.0475 139.06C54.969 145.51 58.2685 151.425 62.6678 156.241C76.8467 171.787 101.548 174.759 121.018 166.763C128.241 163.791 135.078 159.332 139.656 153.001C147.176 142.627 147.652 128.507 144.471 116.082C140.845 101.963 132.671 89.151 121.702 79.639C117.124 75.6558 110.614 69.7999 104.164 70.0674C96.9707 70.3944 89.4205 76.2503 84.5753 80.9766Z" fill="#DFBC9C"/>
<path d="M81.4839 99.6737C90.877 106.659 101.786 112.337 113.498 112.693C125.18 113.08 137.635 107.135 142.183 96.3444C143.788 92.5396 144.204 87.7539 141.469 84.6625C139.478 82.4628 136.386 81.6899 133.473 81.0954C121.316 78.5985 109.009 76.815 96.6437 75.7449C93.3145 75.4477 89.9258 75.2099 86.6858 75.9827C82.1973 77.0528 74.8849 81.1549 73.2203 85.8217C71.1692 91.6181 77.3521 96.5822 81.4839 99.6737Z" fill="#FF9505"/>
<path d="M79.0167 70.3943C74.1715 74.0505 67.305 66.8273 62.7868 62.636C59.6953 59.7824 54.3151 55.8587 54.4637 50.5676C54.6421 44.147 62.4598 43.2552 66.2943 41.9473C70.6936 40.4611 75.4497 39.599 80.1462 41.0259C80.8894 40.4908 79.9679 40.0746 80.7407 40.788C81.5136 41.5312 82.0487 42.6013 82.4351 43.7011C83.4755 46.7331 83.5646 50.0028 83.5646 53.1537C83.5944 57.8503 83.1485 64.3006 81.0083 67.9865C80.4138 69.0864 79.7301 69.8592 79.0167 70.3943Z" fill="#053C5E"/>
<path d="M103.659 24.4096C102.856 24.0826 101.994 23.6367 101.637 22.8341C101.37 22.2396 101.459 21.5559 101.578 20.902C102.737 14.3922 107.672 6.63394 112.784 2.50214C121.137 -4.18602 123.515 3.92895 126.874 10.5279C128.271 13.2626 129.698 16.146 129.431 19.2077C128.539 29.9682 110.109 26.9956 103.659 24.4096Z" fill="#053C5E"/>
<path d="M138.824 18.3159C132.789 16.8594 124.377 16.6513 116.47 17.335C111.179 17.7809 106.126 18.6429 102.143 19.7725C90.5203 23.1017 79.7598 31.0086 74.5579 42.4527C73.6067 43.4039 72.8338 44.5632 72.2393 45.8117C71.2584 47.9222 70.8125 50.211 70.3369 52.4999C68.167 63.3793 67.7508 80.1145 74.6173 89.359C78.1249 94.1151 83.4754 96.939 88.6773 99.5845C120.335 115.785 161.296 93.1639 164.744 57.8801C166.379 41.2637 154.816 22.1802 138.824 18.3159Z" fill="#DFBC9C"/>
<path d="M127.32 46.7926C120.394 48.3383 115.876 55.9182 117.065 62.428C118.224 68.6406 123.456 76.4583 129.995 77.5879C136.802 78.7471 144.68 74.6153 146.523 67.3624C149.406 56.0074 139.062 44.2065 127.32 46.7926Z" fill="#C9A18A"/>
<path d="M136.683 60.6445C139.924 61.4768 140.964 68.0461 138.021 69.9188C134.662 72.0293 131.987 67.2733 129.728 65.1033C132.373 63.1712 131.392 59.3366 130.084 57.137C132.73 58.1476 135.019 62.0714 138.021 60.6445H136.683Z" fill="#053C5E"/>
<path d="M138.705 57.1071C138.794 59.4257 136.178 59.9608 134.395 59.3662C132.373 58.6826 130.917 56.9882 129.46 55.4723C131.422 54.2535 133.176 51.8458 130.798 49.9434C130.263 49.4975 129.579 49.23 128.955 49.23C127.409 49.2597 125.12 50.3001 124.169 51.5486C121.702 54.8183 125.804 57.1963 128.717 55.8587C129.758 58.0286 130.441 60.7633 129.758 62.9035C129.371 64.2115 128.242 65.4897 126.755 64.9249C125.596 64.479 124.764 63.29 124.11 62.309C123.396 61.2687 121.702 62.2496 122.415 63.29C123.426 64.7465 124.645 66.3814 126.458 66.8273C128.063 67.2434 129.668 66.5003 130.62 65.1627C131.809 63.498 131.779 61.447 131.184 59.4852C132.254 60.7039 133.592 61.6254 135.316 61.9821C138.437 62.5766 141.648 60.3769 141.618 57.0774C141.588 55.2345 138.616 55.2047 138.705 57.1071Z" fill="#053C5E"/>
<path d="M133.622 28.4818C133.8 29.106 134.008 29.6709 134.246 30.2951C134.543 31.0382 134.722 31.8408 135.108 32.5245C136.089 34.2188 138.437 33.0298 138.11 31.2463C137.872 29.9384 136.951 28.4818 136.148 27.4414C135.762 26.9361 135.227 26.6389 134.603 26.8172C133.86 26.9658 133.414 27.7387 133.622 28.4818Z" fill="#053C5E"/>
<path d="M94.3846 56.2451C94.5035 56.6316 94.4738 56.9883 94.563 57.345C94.7116 57.8206 95.0386 58.3259 95.3061 58.7421C95.8709 59.6933 96.7626 60.585 97.8922 60.6742C98.5462 60.7336 99.2298 60.0499 99.1704 59.396C99.0812 58.2962 98.3381 57.7017 97.595 56.9883C97.2977 56.691 96.9113 56.4532 96.614 56.156C96.4059 55.9479 96.1681 55.8884 95.9006 55.7695C96.1087 55.829 95.6925 55.502 95.6628 55.4723C95.1575 54.8778 94.1765 55.5615 94.3846 56.2451Z" fill="#053C5E"/>
<path d="M106.334 179.367C106.958 179.813 107.731 180.05 108.593 179.991C115.044 179.575 117.005 156.359 117.749 151.782C118.64 146.491 119.502 141.229 120.394 135.938C120.929 132.669 121.494 129.25 120.632 126.04C118.967 119.679 111.298 115.279 105.056 117.984C99.4974 120.392 100.211 124.405 100.865 129.607C102.054 138.941 102.559 148.363 102.886 157.757C103.035 160.997 101.756 176.067 106.334 179.367Z" fill="#C9A18A"/>
<path d="M83.9214 128.448C87.2803 135.492 85.7941 144.143 81.8109 150.86C79.7004 154.398 76.9062 157.667 76.0145 161.68C75.6281 163.464 75.6875 165.485 76.8468 166.882C77.5899 167.774 78.7195 168.309 79.849 168.666C81.9595 169.32 84.3375 169.528 86.0913 170.865C87.8451 172.233 88.3802 175.443 86.3886 176.424C85.8832 176.662 85.3185 176.721 84.7537 176.781C65.9971 177.94 52.7694 158.975 52.383 141.764C51.9371 125.297 74.4391 108.591 83.9214 128.448Z" fill="#C9A18A"/>
<path d="M132.046 122.919C137.218 124.256 143.104 121.284 145.244 116.379C149.049 107.67 140.875 96.9686 131.898 101.725C123.218 106.332 120.364 119.887 132.046 122.919Z" fill="#FF9505"/>
<path d="M136.535 109.334C135.97 112.455 135.792 115.577 136 118.727C136.089 120.006 138.051 120.006 137.991 118.727C137.813 115.755 137.962 112.782 138.497 109.869C138.675 108.591 136.743 108.056 136.535 109.334Z" fill="#FF9505"/>
<path d="M132.908 115.279C134.87 115.309 136.862 114.923 138.794 114.655C140.132 114.447 139.597 112.337 138.229 112.574C136.386 112.901 134.484 113.199 132.73 113.823C131.928 114.12 132.046 115.279 132.908 115.279Z" fill="#FF9505"/>
<path d="M157.461 38.7966C159.572 37.5482 161.623 36.2105 163.555 34.6648C165.309 33.2677 167.806 31.7518 168.787 29.7007C168.965 29.344 168.668 28.809 168.222 28.9576C166.29 29.6116 164.714 31.4545 163.198 32.7624C161.147 34.5162 159.096 36.2997 156.956 37.9346C156.451 38.321 156.867 39.1236 157.461 38.7966Z" fill="#053C5E"/>
<path d="M159.691 45.6037C161.682 45.0091 163.644 44.3552 165.725 44.1174C167.479 43.9093 169.857 44.0579 171.343 42.9581C171.759 42.6609 171.759 42.0961 171.343 41.7988C169.619 40.5801 166.825 41.1449 164.893 41.4718C162.693 41.8285 160.404 42.423 158.68 43.8796C157.907 44.5633 158.74 45.8712 159.691 45.6037Z" fill="#053C5E"/>
<path d="M161.207 52.4404C163.079 52.2621 164.952 52.6187 166.765 53.1241C168.222 53.5402 169.916 54.432 171.373 53.6889C171.64 53.5402 171.789 53.1835 171.7 52.8863C171.135 51.1028 168.757 50.7163 167.122 50.6271C165.041 50.4785 163.079 50.7163 161.028 51.073C160.256 51.1919 160.434 52.4999 161.207 52.4404Z" fill="#053C5E"/>
<path d="M100.3 75.626C97.2977 75.1801 94.4441 76.6663 91.9769 78.212C89.7772 79.6091 86.4183 81.8683 85.7049 84.5435C85.586 84.9894 86.0021 85.4055 86.448 85.2866C87.5181 85.0191 88.4396 84.2165 89.3611 83.622C90.6095 82.8194 91.7688 81.8682 93.0173 81.0062C95.3656 79.4011 98.0111 78.2715 100.449 76.7852C100.894 76.5474 100.894 75.7152 100.3 75.626Z" fill="#053C5E"/>
<path d="M102.143 79.9065C100.032 80.4712 98.4273 81.7494 97.0005 83.3843C95.6629 84.9003 94.3252 86.6244 93.7307 88.5862C93.5524 89.151 94.2063 89.5672 94.6819 89.2996C96.3168 88.4376 97.3275 86.8325 98.457 85.4354C99.6757 83.9194 101.103 82.4331 102.797 81.4819C103.629 80.9766 103.064 79.6389 102.143 79.9065Z" fill="#053C5E"/>
<path d="M104.878 84.1275C102.589 86.6244 99.9729 89.7752 99.527 93.2233C99.4676 93.6989 100.092 93.9665 100.449 93.7584C103.391 92.0344 104.848 88.1998 106.245 85.1976C106.602 84.3355 105.561 83.3546 104.878 84.1275Z" fill="#053C5E"/>
</svg>
