<svg width="167" height="180" viewBox="0 0 167 180" fill="none" xmlns="http://www.w3.org/2000/svg">
<path d="M37.5638 76.8099C36.7436 73.6933 34.9065 70.8391 32.4132 68.7723C30.9697 67.5584 29.1325 66.607 27.2625 66.8695C25.8518 67.0663 24.6051 67.9521 23.6866 69.0347C21.751 71.2328 20.8324 74.3166 21.2917 77.2364C19.4545 74.6447 15.7801 74.0869 12.6307 74.6775C8.43143 75.4976 4.36339 78.319 3.21516 82.4527C2.00131 86.816 4.42901 90.6872 8.33301 92.1963C4.92111 92.9836 2.4278 95.641 1.27956 98.9216C-1.31217 106.238 0.196941 115.292 4.33059 121.788C8.72669 128.677 15.6817 131.4 23.7522 131.597C24.7692 131.63 25.7862 131.597 26.7376 131.302C27.7218 131.007 28.6076 130.449 29.4934 129.891C31.4946 128.612 33.5286 127.299 34.8409 125.331L37.5638 76.8099Z" fill="#C9A18A"/>
<path opacity="0.5" d="M37.5638 76.8099C36.7436 73.6933 34.9065 70.8391 32.4132 68.7723C30.9697 67.5584 29.1325 66.607 27.2625 66.8695C25.8518 67.0663 24.6051 67.9521 23.6866 69.0347C21.751 71.2328 20.8324 74.3166 21.2917 77.2364C19.4545 74.6447 15.7801 74.0869 12.6307 74.6775C8.43143 75.4976 4.36339 78.319 3.21516 82.4527C2.00131 86.816 4.42901 90.6872 8.33301 92.1963C4.92111 92.9836 2.4278 95.641 1.27956 98.9216C-1.31217 106.238 0.19694 115.292 4.33059 121.788C8.72669 128.677 15.6817 131.4 23.7522 131.597C24.7692 131.63 25.7862 131.597 26.7376 131.302C27.7218 131.007 28.6076 130.449 29.4934 129.891C31.4946 128.612 33.5286 127.299 34.8409 125.331L37.5638 76.8099Z" fill="#C9A18A"/>
<path d="M74.4386 155.349C81.7217 154.037 89.0376 151.773 94.9756 147.344C105.441 139.536 109.968 127.168 100.356 116.473C95.0741 110.601 87.4301 107.419 79.9501 104.925C74.3074 103.055 68.2381 101.448 62.497 102.924C56.4277 104.499 51.6707 109.256 48.0948 114.406C44.2236 119.918 41.271 126.25 40.6805 132.942C38.9417 152.757 58.1665 158.269 74.4386 155.349Z" fill="#C9A18A"/>
<path d="M46.3889 56.601C34.6441 70.8391 27.0001 89.8998 26.0487 108.272C25.5894 117.064 26.7048 125.167 29.559 133.434C32.2164 141.21 37.4982 148.033 37.0061 156.662L37.8263 163.518C37.8263 163.518 50.3257 170.965 50.7194 170.178C50.949 169.686 53.2783 169.456 53.8032 169.161C55.9684 168.045 57.0839 165.979 57.6416 163.682C58.9867 157.843 59.3475 151.806 60.5286 145.901C60.791 144.621 61.0863 143.309 61.8409 142.194C62.5626 141.111 63.8093 140.258 65.1215 140.357L46.3889 56.601Z" fill="#C9A18A"/>
<path d="M56.3949 123.264C52.1628 118.835 49.0134 113.947 47.6683 107.911C46.7497 103.81 45.6999 94.6896 48.7181 91.1136C47.7011 92.3275 46.5529 93.6069 44.9781 93.771C43.4034 93.935 41.9271 92.8196 41.2054 91.4417C40.4836 90.0638 40.3524 88.4235 40.2868 86.8488C40.1555 81.042 41.1726 75.2352 43.2394 69.8221C43.4034 69.4284 43.4362 69.0675 43.2066 68.7066C43.0425 68.8707 38.4168 72.0857 38.3184 71.692C36.7108 64.4418 43.2722 55.059 43.2722 55.059C38.3512 57.1587 39.3682 54.4357 39.3682 54.4357C42.2552 39.3774 52.8518 30.1259 52.9502 29.437C53.4095 26.1563 55.6731 22.4819 56.9198 19.4309C58.2977 16.0518 59.9052 12.804 60.9878 9.35925C61.8408 6.60348 63.7436 5.25841 66.5978 6.24261C69.1895 7.12839 71.5516 8.93276 73.5856 10.7371C75.2916 12.2462 76.8335 13.9522 78.1129 15.855C78.1129 15.855 106.524 10.5075 114.069 14.2146C115.742 11.8526 117.678 9.6217 119.679 7.52207C122.664 4.43824 126.568 0.632658 131.03 0.0421363C135.033 -0.482771 138.281 4.04456 140.282 6.93155C142.972 10.7699 145.465 15.5269 144.973 20.3495L145.006 20.3823C148.352 23.3349 151.37 26.7468 154.028 30.3228C156.554 33.7018 158.752 37.3762 160.261 41.313C160.786 42.7237 164.132 52.6969 161.344 52.5329C161.048 52.5329 160.786 52.3689 160.556 52.2377C159.933 51.9096 159.277 51.5487 158.653 51.2206C161.967 58.4709 163.575 66.0493 165.477 73.7589C166.002 75.8257 166.265 77.9581 166.363 80.1234C166.429 81.5997 166.888 84.3226 166.199 85.6677C164.952 88.161 162.492 84.3226 161.639 83.3712C162.918 89.7358 162.262 96.7892 159.933 102.891C157.636 108.895 154.29 114.472 150.747 119.82C150.747 119.82 144.973 128.94 144.415 122.214C138.182 129.071 131.49 135.534 124.436 141.505C119.646 145.54 114.43 148.985 109.017 152.134C107.048 153.282 96.1895 161.123 94.9428 156.53C94.4179 154.627 96.4519 151.937 97.3377 150.494C95.6317 151.872 91.7605 155.12 90.2514 151.544C87.0364 143.998 83.0668 140.389 75.6196 136.748C68.5334 133.303 61.8408 128.94 56.3949 123.264Z" fill="#DFBC9C"/>
<path opacity="0.5" d="M50.3584 101.677C50.2272 99.3482 50.2928 97.0517 50.5881 94.788C51.0474 91.3761 52.3268 88.4235 52.4253 84.8148C52.4581 84.2899 52.4253 83.6665 52.0316 83.3057C51.4739 82.8136 50.5881 83.1088 49.9648 83.5025C47.9963 84.6836 46.356 86.3895 45.2406 88.3579C44.7157 79.5657 46.4544 70.6095 50.1616 62.6374C47.9635 60.9315 44.8797 62.8999 42.8129 64.7699C44.0923 62.1781 45.3062 59.5864 46.52 56.9619C47.1106 55.6824 49.5711 52.0737 49.2102 50.663C48.7181 48.7602 44.5516 49.3507 44.2236 51.0895C45.7655 42.9862 51.0474 37.6387 55.4107 31.1101C59.4787 25.0409 62.4969 18.4139 62.7266 10.9668C62.7594 9.52332 62.7266 8.07982 62.6282 6.66913C61.8736 7.25965 61.3159 8.17824 60.9222 9.35928C59.8396 12.804 58.232 16.0519 56.8542 19.431C55.6075 22.4492 53.3438 26.1563 52.8845 29.437C52.7861 30.1259 42.1896 39.3774 39.3026 54.4357C39.3026 54.4357 38.2856 57.1587 43.2066 55.0591C43.2066 55.0591 36.6452 64.4418 38.2528 71.6921C38.3512 72.0858 42.9441 68.8707 43.141 68.7067C43.3706 69.0675 43.3378 69.4284 43.1738 69.8221C41.1069 75.2352 40.1227 81.042 40.2212 86.8488C40.254 88.4235 40.3852 90.0311 41.1397 91.4417C41.8615 92.8196 43.3706 93.9351 44.9125 93.771C46.4872 93.607 47.6355 92.3275 48.6525 91.1137C45.9951 94.2631 46.4872 99.7747 46.9137 103.58C47.5699 109.715 50.26 117.031 54.164 121.854C53.0814 118.737 52.5565 115.358 51.8347 112.143C51.1458 108.698 50.5225 105.221 50.3584 101.677Z" fill="#D3804E"/>
<path d="M114.725 77.7613C114.627 76.7115 114.528 75.6617 114.135 74.6775C113.511 73.1683 112.166 71.9873 110.624 71.3968C109.082 70.7735 107.409 70.675 105.769 70.8391C105.113 70.9047 104.457 71.0031 103.866 71.3312C100.815 73.1027 101.767 77.9909 102.324 80.7795C102.915 83.7977 105.867 85.963 108.886 86.127C113.413 86.3238 115.053 81.4684 114.725 77.7613Z" fill="#053C5E"/>
<path d="M66.893 28.8136C67.1227 28.584 66.3353 24.2535 66.4009 23.6302C66.4994 22.646 66.729 21.2353 67.7132 20.7104C69.0583 19.9886 70.1737 21.3009 71.2235 22.0554C70.7314 18.3155 69.4191 14.6739 67.5164 11.3933C66.4009 9.52327 64.1373 4.40542 61.6768 7.91574C61.5455 8.11258 61.4143 8.34223 61.2831 8.60468C61.1847 8.86714 61.0862 9.09679 60.9878 9.39205C59.9052 12.8368 58.2977 16.0846 56.9198 19.4637C55.8372 22.1211 53.9672 25.2705 53.2126 28.2231C53.1142 28.6496 53.0158 29.0761 52.9502 29.4698C52.9502 29.4698 52.9502 29.5026 52.9174 29.5354C57.2807 31.5038 64.0717 31.3398 66.893 28.8136Z" fill="#053C5E"/>
<path d="M50.5225 158.367C45.4703 154.693 37.2358 155.644 33.1677 160.401C32.2819 161.418 31.8555 162.796 31.6914 164.141C30.74 172.015 36.5468 175.755 43.6659 174.541C48.4557 173.721 56.1652 170.407 57.1494 164.929L50.5225 158.367Z" fill="#C9A18A"/>
<path opacity="0.5" d="M57.2151 164.994C58.5273 161.287 58.757 156.793 59.3475 153.315C60.2661 148.001 61.4799 141.341 60.0364 136.059C59.3147 141.931 58.3961 147.836 57.051 153.578C55.9356 158.367 54.8858 164.076 51.0802 167.553C47.4058 170.9 42.0912 173.13 37.4654 170.079C35.661 168.866 34.8081 166.536 34.8409 164.437C34.8737 162.599 36.514 159.647 38.384 159.024C41.435 158.007 44.7813 157.843 47.9308 158.564C47.5043 158.007 46.8153 157.711 46.1592 157.482C41.4022 155.809 36.5468 156.53 33.1677 160.467C32.2819 161.484 31.8555 162.862 31.6914 164.207C30.74 172.081 36.5468 175.821 43.6659 174.607C47.5043 173.951 51.4739 172.442 54.3281 169.719C55.6731 168.439 56.5589 166.799 57.2151 164.994Z" fill="#D3804E"/>
<path d="M56.723 127.135C61.4472 133.008 62.7595 138.716 63.6453 146.295C63.7765 147.41 64.7279 162.534 63.6453 162.435C60.2662 162.173 57.0511 164.601 55.7716 167.75C51.5724 177.986 61.9721 180.709 70.0426 179.757C77.2273 178.904 83.4277 177.527 85.0681 169.686C86.6756 161.943 84.0511 154.398 91.2357 148.624L56.723 127.135Z" fill="#C9A18A"/>
<path d="M108.558 141.8C111.117 145.606 112.888 150.559 113.151 155.185C113.38 159.45 114.004 163.682 114.66 167.881C115.119 170.9 115.086 175.132 117.481 177.33C120.565 180.184 128.242 179.889 132.146 179.397C136.542 178.839 142.02 174.902 139.396 169.915C138.116 167.521 135.295 166.175 132.572 166.208C132.671 158.63 133.163 151.183 135.164 143.932C137.231 136.453 140.315 129.333 143.169 122.149C143.661 120.935 144.186 119.688 145.268 118.967L108.558 141.8Z" fill="#C9A18A"/>
<path opacity="0.5" d="M109.772 112.897C110.165 114.964 112.659 117.195 114.069 114.538C114.66 113.455 114.922 112.241 114.889 111.027C114.627 111.88 114.2 112.7 113.741 113.455C113.544 113.75 113.347 114.078 113.019 114.242C111.806 114.8 111.051 112.7 110.887 111.913C110.624 110.831 110.559 109.682 110.526 108.567C110.526 107.386 110.493 106.205 110.723 105.024C110.001 107.386 109.345 109.649 108 111.716C107.081 113.127 105.671 112.832 105.211 111.29C104.686 109.584 104.851 107.419 105.08 105.68C105.211 104.794 105.408 103.908 105.179 103.022C104.391 106.106 103.309 109.617 101.57 112.307C101.307 112.7 100.914 113.127 100.454 113.061C100.061 112.996 99.8311 112.569 99.6671 112.176C98.486 109.157 98.6829 105.745 99.1093 102.53C98.4532 105.352 96.1567 113.521 100.356 114.866C102.652 115.587 103.637 110.929 103.998 109.551C103.702 110.83 103.505 115.916 105.966 115.227C107.672 114.735 109.017 113.389 109.575 111.749C109.64 112.143 109.673 112.536 109.772 112.897Z" fill="#D3804E"/>
<path d="M113.643 66.9679C110.198 65.5572 106.13 65.4588 102.587 66.5414C97.5018 68.1161 91.3997 76.1866 96.6816 80.8451C97.9939 81.9934 99.8639 82.6167 101.603 82.5511C102.521 82.5183 103.407 82.2886 104.194 81.7965C106.097 80.5827 107.902 77.8925 107.573 75.4976C107.311 73.562 107.049 71.5936 106.786 69.658C106.852 71.528 107.147 73.398 107.672 75.2024C107.902 75.9569 108.164 76.7115 108.59 77.3348C110.034 79.4016 113.577 79.8281 115.841 79.3688C118.597 78.8111 120.073 75.6617 119.581 73.0371C118.925 69.8877 116.464 68.1161 113.643 66.9679Z" fill="#F1EFD1"/>
<path d="M102.292 72.9715C103.243 72.9059 102.784 71.4296 101.964 71.9873C101.373 72.381 101.603 73.0371 102.292 72.9715Z" fill="#053C5E"/>
<path d="M104.162 76.8099C105.113 76.7443 104.654 75.268 103.833 75.8257C103.243 76.2194 103.473 76.8755 104.162 76.8099Z" fill="#053C5E"/>
<path d="M114.168 69.9205C115.119 69.8549 114.66 68.3786 113.84 68.9363C113.249 69.33 113.479 69.9861 114.168 69.9205Z" fill="#053C5E"/>
<path d="M110.198 74.2182C111.149 74.1526 110.69 72.6763 109.87 73.234C109.279 73.5949 109.509 74.251 110.198 74.2182Z" fill="#053C5E"/>
<path d="M113.019 78.1878C113.971 78.1222 113.511 76.6459 112.691 77.2036C112.101 77.5645 112.33 78.2206 113.019 78.1878Z" fill="#053C5E"/>
<path d="M99.6999 81.0092C100.651 80.9436 100.192 79.4673 99.3718 80.025C98.8141 80.4186 99.0438 81.042 99.6999 81.0092Z" fill="#053C5E"/>
<path d="M97.4035 75.0383C98.3549 74.9727 97.8956 73.4964 97.0754 74.0541C96.4849 74.415 96.7473 75.0711 97.4035 75.0383Z" fill="#053C5E"/>
<path d="M109.936 61.7188C106.885 60.0456 102.259 61.4563 101.504 65.0979C101.275 66.2133 101.471 67.4272 102.193 68.3129C103.407 69.8221 106.721 70.347 108.525 70.1501C110.034 69.9861 111.51 69.1003 112.068 67.7224C112.462 66.7382 112.363 65.6228 112.166 64.6058C112.068 64.1465 111.937 63.6544 111.674 63.2607C111.281 62.6374 110.657 62.1453 109.936 61.7188Z" fill="#053C5E"/>
<path d="M135.262 21.7274C135.656 20.8416 136.017 19.8574 136.968 19.4309C138.674 18.7092 139.396 20.3823 139.56 21.6946C139.56 21.2025 139.855 20.7104 140.249 20.4479C141.692 19.4965 143.005 21.8258 144.612 20.5792C144.743 20.4807 144.842 20.3495 144.973 20.2183C145.4 15.4285 142.939 10.7371 140.282 6.93155C139.921 6.43945 139.527 5.88173 139.133 5.32402C138.773 4.93033 138.379 4.53665 137.985 4.17578C136.378 2.69948 134.639 2.73228 133.425 4.63507C132.342 6.34103 131.358 8.1454 130.505 9.98257C128.603 14.149 127.29 18.906 128.176 23.4661C128.11 23.2037 129.062 22.2523 129.193 22.0555C129.915 21.1041 130.702 20.1527 131.555 19.2997C132.08 18.7748 133.031 17.8234 133.884 17.9874C135.098 18.2171 135.197 20.8416 135.262 21.7274Z" fill="#053C5E"/>
<path opacity="0.5" d="M139.855 171.261C139.855 171.293 139.855 171.326 139.855 171.326C139.593 172.507 139.199 173.721 138.346 174.607C136.673 176.346 130.735 175.689 128.471 175.427C123.714 174.869 120.827 172.638 119.909 167.783C118.564 160.664 118.039 153.25 118.498 146.032C118.76 145.868 118.99 145.671 119.253 145.507C119.351 145.442 119.482 145.343 119.581 145.278C120.27 144.785 120.926 144.293 121.582 143.768C121.779 143.637 121.976 143.473 122.14 143.309C122.894 142.719 123.649 142.095 124.403 141.472C131.457 135.501 138.149 129.005 144.383 122.182C144.415 122.378 144.415 122.575 144.448 122.772C145.17 127.529 149.238 121.558 151.272 118.967C154.618 113.882 157.702 108.567 159.9 102.891C162.229 96.7892 162.886 89.7686 161.606 83.3713C162.459 84.3227 164.887 88.1938 166.166 85.6677C166.855 84.3227 166.396 81.5669 166.33 80.1234C166.232 77.991 165.969 75.8585 165.444 73.7589C163.542 66.0493 161.934 58.5038 158.621 51.2207C159.244 51.5487 159.9 51.9096 160.523 52.2377C160.786 52.3689 161.048 52.5001 161.311 52.5329C164.099 52.6642 160.786 42.6909 160.228 41.313C158.686 37.3762 156.488 33.7019 153.995 30.3228C151.338 26.7468 148.319 23.3349 144.973 20.3823L144.94 20.3495C145.17 18.2499 144.809 16.1503 144.12 14.149C142.48 14.9364 141.266 16.4455 141.43 18.2499C141.561 19.6934 142.545 20.94 143.464 22.0555C149.369 29.2401 155.734 35.6703 157.8 45.053C157.899 45.4795 157.965 46.0044 157.636 46.2996C157.21 46.7261 156.521 46.3653 156.029 46.0044C155.274 45.4467 154.52 44.889 153.765 44.3641C153.634 44.4297 153.667 44.5937 153.7 44.7249C155.734 51.4831 157.997 58.1429 159.867 64.9667C160.983 69.0347 162.689 72.9387 163.214 77.138C163.378 78.5815 163.837 81.3372 161.639 80.3202C160.228 79.6641 159.047 78.6471 158.096 77.4332C158.391 79.4673 158.129 81.4685 158.325 83.4697C158.555 85.5693 158.916 87.6033 159.014 89.703C159.244 93.9678 158.949 98.2655 157.768 102.366C156.685 106.041 155.012 109.518 152.781 112.602C151.862 113.849 147.926 120.049 146.121 119.426C145.465 119.229 145.104 118.573 144.809 117.95C145.006 118.376 141.528 121.985 141.102 122.477C139.757 124.052 138.379 125.626 137.001 127.135C134.245 130.121 131.391 133.008 128.34 135.698C122.271 141.078 115.545 145.802 108.558 149.969C105.441 151.839 102.193 153.742 98.9452 155.218C97.2393 156.005 97.0096 154.496 97.6002 153.25C98.1579 152.003 98.9452 150.888 99.5686 149.674C100.159 148.591 100.848 146.951 101.832 146.131C99.8966 147.672 98.0923 148.493 95.7958 149.444C92.7776 150.658 91.4653 147.476 89.6281 145.474C87.5285 143.178 85.396 140.914 82.8699 139.077C79.3268 136.485 76.4398 133.697 72.2733 132.024C73.7825 133.566 75.39 135.009 77.1287 136.289C78.6707 137.437 79.9501 138.979 81.4592 140.225C83.0668 141.538 84.7071 142.817 86.0194 144.457C86.085 144.556 86.1834 144.654 86.249 144.753C86.4131 144.949 86.5443 145.146 86.7083 145.343C86.8067 145.474 86.9052 145.606 86.9708 145.737C87.102 145.934 87.2332 146.131 87.3644 146.327C87.4629 146.459 87.5285 146.59 87.6269 146.688C87.8237 147.016 88.0206 147.312 88.2174 147.672C88.2502 147.738 88.283 147.804 88.3158 147.869C88.4471 148.099 88.5783 148.361 88.7095 148.591C85.6585 151.905 84.0838 156.465 83.6901 160.992C83.362 164.863 82.7715 169.358 80.3438 172.606C78.5722 175 75.6852 176.378 72.7326 176.969C67.6148 177.986 58.7242 177.494 57.5431 170.9C57.2151 168.997 58.1336 166.897 59.7084 165.782C61.1519 164.765 63.8748 164.568 65.6136 164.338C68.1069 164.043 71.322 164.863 73.6512 165.749C73.0935 165.552 72.3718 164.469 71.8141 164.109C70.1737 163.026 68.2053 162.993 66.3681 162.6C66.6962 160.533 66.0073 158.597 66.0729 156.497C66.1713 153.381 65.9416 150.264 65.4495 147.213C64.8262 143.276 64.3341 139.635 61.9392 136.321C62.3657 138.06 62.4969 139.766 62.825 141.505C62.8578 141.603 62.8578 141.702 62.8906 141.833C62.9562 142.194 63.0218 142.555 63.0875 142.948C63.1203 143.08 63.1203 143.211 63.1531 143.342C63.2187 143.703 63.2515 144.097 63.3171 144.49C63.3499 144.621 63.3499 144.72 63.3827 144.851C63.4483 145.343 63.5139 145.868 63.5796 146.36C63.7108 147.476 64.6622 162.6 63.5796 162.501C60.2005 162.239 56.9854 164.666 55.7059 167.816C51.5067 178.052 61.9064 180.774 69.9769 179.823C77.1615 178.97 83.362 177.592 85.0024 169.751C86.4787 162.665 84.4118 155.743 89.5297 150.231C89.5625 150.297 89.5953 150.33 89.5953 150.395C89.7921 150.789 89.9562 151.216 90.153 151.642C91.6621 155.185 95.5333 151.97 97.2393 150.592C96.3535 152.036 94.3195 154.726 94.8444 156.629C96.091 161.189 106.95 153.348 108.918 152.233C110.001 151.609 111.084 150.953 112.166 150.297C112.199 150.297 112.199 150.264 112.232 150.264C112.691 151.937 112.987 153.643 113.085 155.316C113.315 159.581 113.938 163.813 114.594 168.013C115.053 171.031 115.021 175.263 117.415 177.461C120.499 180.315 128.176 180.02 132.08 179.528C136.115 178.904 140.971 175.624 139.855 171.261Z" fill="#D3804E"/>
<path d="M124.073 47.1285C123.904 48.6825 124.039 50.2365 124.377 51.7905C124.647 52.9053 125.931 53.5809 127.012 53.2769C128.16 52.9728 128.768 51.7567 128.498 50.6419C128.228 49.4595 128.16 48.3109 128.295 47.1285C128.397 45.9799 127.248 45.0002 126.167 45.0002C124.917 45.0002 124.208 45.9799 124.073 47.1285Z" fill="#053C5E"/>
<path d="M83.505 48.9731C83.505 49.0068 83.4712 49.7163 83.505 49.2433C83.4712 49.4122 83.4374 49.5811 83.4374 49.7838C83.4037 50.1554 83.3699 50.223 83.4037 49.8852C83.3023 50.3243 83.2348 50.7635 83.0996 51.2027C82.6942 52.4864 83.5726 54.0404 84.8901 54.3444C86.2414 54.6485 87.6602 53.939 88.0318 52.554C88.471 50.8986 88.3021 49.3447 87.4237 47.892C86.3765 46.1016 83.5388 46.8786 83.505 48.9731Z" fill="#053C5E"/>
<path d="M122.62 68.2341C124.6 67.8786 126.559 67.4389 128.481 66.8084C130.224 66.2406 132.577 65.7905 133.898 64.5115C134.134 64.2912 134.049 63.803 133.662 63.7909C131.982 63.7461 130.256 64.7014 128.722 65.2681C126.65 66.0229 124.571 66.8003 122.463 67.4401C121.965 67.5915 122.069 68.3156 122.62 68.2341Z" fill="#053C5E"/>
<path d="M122.313 73.4777C123.997 73.6702 125.671 73.8177 127.345 74.2547C128.758 74.6183 130.579 75.3765 131.981 75.1163C132.371 75.05 132.496 74.7024 132.237 74.4028C131.163 73.1694 128.86 72.7336 127.282 72.3932C125.488 71.996 123.573 71.7202 121.906 72.1333C121.153 72.3374 121.512 73.3757 122.313 73.4777Z" fill="#053C5E"/>
<path d="M121.764 79.302C123.234 79.6631 124.543 80.4694 125.764 81.3832C126.741 82.1258 127.756 83.3287 129.08 83.1067C129.327 83.0558 129.546 82.7995 129.568 82.5279C129.674 80.8903 127.991 79.9217 126.781 79.4027C125.251 78.7129 123.696 78.377 122.038 78.1157C121.418 78.0044 121.161 79.1412 121.764 79.302Z" fill="#053C5E"/>
<path d="M90.9224 72.1324C89.1141 70.7974 86.7314 70.7775 84.5808 70.9309C82.6568 71.08 79.6751 71.3899 78.2788 72.8915C78.0461 73.1417 78.1736 73.5585 78.5065 73.6357C79.2993 73.8327 80.1808 73.628 80.99 73.5595C82.0854 73.4686 83.1741 73.2495 84.2901 73.1197C86.3836 72.8861 88.5062 73.0669 90.6167 72.9421C90.9909 72.9416 91.2802 72.3973 90.9224 72.1324Z" fill="#053C5E"/>
<path d="M90.6399 75.5721C89.0635 75.2079 87.5696 75.4859 86.0683 76.0592C84.6667 76.5856 83.1928 77.2482 82.1222 78.3245C81.8093 78.6318 82.0923 79.1312 82.4963 79.1216C83.865 79.1261 85.0838 78.4277 86.308 77.9066C87.6318 77.3388 89.0814 76.8628 90.52 76.8296C91.2399 76.7884 91.3355 75.7174 90.6399 75.5721Z" fill="#053C5E"/>
<path d="M90.961 79.2827C88.5965 80.12 85.7908 81.2714 84.3009 83.3713C84.0967 83.6616 84.4119 84.0535 84.7175 84.0414C87.2411 83.9368 89.5262 81.9354 91.4833 80.4577C92.0161 80.0179 91.6767 79.0149 90.961 79.2827Z" fill="#053C5E"/>
</svg>
