<svg width="63" height="43" viewBox="0 0 63 43" fill="none" xmlns="http://www.w3.org/2000/svg">
<path d="M61.4226 22.3801C60.6455 19.0677 55.4438 17.7347 52.724 19.0476C50.7841 19.984 49.4489 22.1311 47.882 22.6462C38.2294 20.1348 29.6812 18.76 19.4862 12.3275C16.6316 8.07082 13.741 1.77925 8.70851 3.72865C4.81337 5.23747 5.32172 8.35714 6.77015 10.7362C7.30781 11.6194 6.68687 13.6617 5.80839 14.2103C2.9156 16.0167 0.819089 18.7065 3.01282 21.5611C6.77028 26.4505 11.8315 23.835 16.4664 21.7501C18.5968 20.7917 20.3515 21.6418 24.0876 23.0733C32.1417 26.1593 36.8668 27.9698 43.359 29.636C43.8284 29.8484 43.5038 31.5993 43.4864 32.1029C43.3742 35.3393 45.953 38.4026 48.843 39.5099C53.0363 41.1166 56.0531 38.2917 56.3485 34.03C56.5286 31.4326 55.3756 29.4837 57.6905 28.2635C60.15 27.6546 62.0429 25.0243 61.4226 22.3801Z" fill="#FFA186"/>
</svg>
