<svg width="85" height="59" viewBox="0 0 85 59" fill="none" xmlns="http://www.w3.org/2000/svg">
<path d="M72.3044 2.74263C68.4796 0.249042 62.1966 3.77799 60.7747 7.5733C59.7606 10.2803 60.4556 13.6015 59.4129 15.5538C47.7188 22.0657 38.15 28.6564 22.2946 31.8665C15.5785 30.3827 6.94112 26.9578 3.86535 33.5148C1.48472 38.5898 4.8701 41.1455 8.48109 42.1112C9.8215 42.4696 11.1124 45.0269 10.7686 46.3736C9.63636 50.8081 10.0958 55.3617 14.8708 56.0977C23.0494 57.3585 25.5356 50.1286 28.0998 43.8087C29.2785 40.9038 31.7692 40.1019 36.7213 38.0273C47.3971 33.5549 53.6602 30.9311 61.5042 26.529C62.1566 26.3 63.4648 28.2998 63.9148 28.8046C66.8063 32.0488 72.1484 32.6304 75.979 31.0256C81.5372 28.6971 81.8455 23.1593 78.1813 18.7504C75.9481 16.0632 73.0226 15.2411 74.1374 11.9111C75.9595 9.04018 75.3576 4.73323 72.3044 2.74263Z" fill="#44BBA4"/>
</svg>
