<svg width="204" height="205" viewBox="0 0 204 205" fill="none" xmlns="http://www.w3.org/2000/svg">
<path d="M44.9212 95.1815C38.7216 90.4869 36.0338 82.6746 32.9161 75.579C29.8341 68.4475 25.2471 60.9936 17.7573 58.9867C11.5576 57.3024 4.39031 60.3127 1.23671 65.9032C-0.125069 68.3042 -0.662605 71.6011 1.20089 73.6438C2.81352 75.3998 5.50121 75.5073 7.79474 76.0807C14.0303 77.5858 18.689 82.9613 21.5201 88.7309C24.3512 94.5006 25.8563 100.844 28.4365 106.721C30.0492 110.34 32.1276 113.852 35.2096 116.325C38.2915 118.798 42.4843 120.159 46.283 119.048C46.6414 118.224 46.9639 117.436 47.3223 116.612L44.9212 95.1815Z" fill="#FFC474"/>
<path d="M130.391 18.9216C128.886 20.2834 127.452 21.8243 125.661 22.7561C123.869 23.7237 121.539 24.0104 119.819 22.8636C117.024 21.0001 117.454 16.9148 117.597 13.5461C117.777 8.85158 116.666 4.12118 114.372 0C106.56 3.5478 100.145 10.1775 96.9198 18.1332C96.3823 19.4233 95.9164 20.8209 96.0239 22.2185C96.1314 24.082 97.099 25.7664 98.2099 27.2715C106.596 38.5958 131 49.7767 143.722 39.3125C149.384 34.6538 150.531 26.6264 149.599 19.7458C148.847 14.012 148.453 10.07 142.611 11.3601C138.275 12.3635 133.58 16.0188 130.391 18.9216Z" fill="#FF9505"/>
<path d="M41.0151 91.0243C41.051 91.311 41.0509 91.5976 41.0509 91.8843C41.6602 101.954 43.1653 111.953 44.6346 121.951C45.9964 130.91 47.3581 139.977 50.5834 148.47C54.2387 157.967 60.0801 166.388 66.1006 174.595C70.6518 180.83 75.3822 187.066 81.546 191.76C82.4419 192.441 83.3379 193.086 84.2696 193.66C97.3857 202.153 114.336 203.228 130.033 201.723C143.328 200.468 156.587 197.602 168.521 191.617C180.454 185.632 190.99 176.351 196.903 164.417C203.497 151.122 204.035 135.354 200.63 120.912C197.262 106.47 190.238 93.1028 182.282 80.56C175.186 69.3433 167.302 58.6282 158.558 48.6657C150.746 39.8141 142.253 31.5717 133.043 24.1895C124.12 17.058 118.888 16.3055 107.635 17.8106C100.934 18.7065 94.3396 20.4266 88.0682 22.9352C78.9658 26.5188 70.4726 31.7151 63.162 38.2373C59.6858 41.3551 56.4606 44.7595 53.5578 48.4507C48.3616 55.0804 44.1687 62.606 42.2336 70.8126C40.6926 77.4065 40.6209 84.287 41.0151 91.0243Z" fill="#FFC474"/>
<path d="M41.0508 91.9203C41.6601 101.99 43.1652 111.989 44.6345 121.987C45.9963 130.946 47.358 140.013 50.5833 148.506C54.2386 158.003 60.08 166.424 66.1005 174.631C70.6517 180.866 75.3821 187.102 81.5459 191.796C82.4418 192.477 83.3377 193.122 84.2695 193.696C91.1501 194.95 98.819 194.878 104.517 190.829C110.609 186.492 113.046 178.608 113.834 171.155C116.128 149.008 106.954 127.183 94.9129 108.477C89.7524 100.485 83.8395 92.6371 75.7763 87.5841C67.7131 82.4954 57.0697 80.6677 48.5765 85.0039C45.0287 86.7599 42.6276 89.1251 41.0508 91.9203Z" fill="#FF9505"/>
<path d="M87.4232 46.0857C86.8498 46.1932 86.2406 46.3007 85.6672 46.4082C84.162 46.7307 82.7286 45.4765 83.1586 43.8997C83.5887 42.3587 85.4522 42.0003 86.5631 43.0038C86.9931 43.398 87.459 43.7922 87.9249 44.1864C88.5341 44.7239 88.2116 45.9424 87.4232 46.0857Z" fill="#053C5E"/>
<path d="M84.6636 45.8706C84.3411 50.171 80.1124 72.0312 90.7199 68.4117C91.8309 68.0175 92.5476 69.7735 91.5083 70.311C87.2438 72.5687 83.3735 69.6301 82.1192 65.4014C80.3632 59.6318 81.51 51.0311 84.126 45.7273C84.2336 45.4764 84.6636 45.5839 84.6636 45.8706Z" fill="#053C5E"/>
<path d="M118.923 35.2989C125.768 44.903 124.335 64.9714 110.86 66.9424C107.061 67.4799 103.191 66.4049 99.7508 64.7206C98.7116 64.2189 97.6723 63.6096 97.0273 62.6779C96.2389 61.567 96.0597 60.1335 95.9522 58.7717C95.7372 56.0123 95.7013 53.2171 95.8447 50.4577C95.9522 48.1641 96.203 45.8348 97.0631 43.7204C97.8515 41.7494 99.1416 40.0651 100.432 38.3808C104.732 32.7545 110.609 27.3432 116.881 32.9695C117.597 33.6146 118.278 34.403 118.923 35.2989Z" fill="#FF9505"/>
<path d="M110.645 42.9677C111.004 44.222 110.144 45.6196 109.678 46.7306C109.283 47.6981 108.71 48.4865 107.635 48.7732C106.739 49.0241 105.807 48.8091 105.091 48.2357C104.374 47.6623 103.944 46.8739 103.944 45.9422C103.944 44.8671 104.517 44.007 105.413 43.3978C105.879 43.0753 106.345 42.7527 106.811 42.4302C107.456 42.0002 108.101 41.4984 108.925 41.5701C109.678 41.6776 110.43 42.1793 110.645 42.9677Z" fill="#053C5E"/>
<path d="M63.9145 45.5839C64.4162 46.6948 65.1688 47.7341 66.2439 48.3074C68.3941 49.4542 71.0818 48.3791 73.1603 47.089C78.6074 43.6846 90.7559 31.9302 88.6774 24.2971C88.5341 23.7595 88.319 23.3295 88.0682 22.9353C78.9657 26.5189 70.4725 31.7152 63.1619 38.2374C62.6602 40.7101 62.8036 43.2904 63.9145 45.5839Z" fill="#FF9505"/>
<path d="M79.1091 32.8619C79.4675 33.937 78.8941 34.8688 78.4641 35.8363C77.9982 36.9473 77.6398 38.0582 76.4214 38.6316C75.4896 39.0616 74.5221 39.0974 73.6978 38.4524C72.9094 37.8432 72.5869 36.8398 72.8019 35.8722C73.1245 34.4746 74.2354 33.8295 75.3105 33.0411C76.0989 32.5036 76.8156 31.7868 77.8548 31.9302C78.4999 32.0019 78.8941 32.2885 79.1091 32.8619Z" fill="#053C5E"/>
<path d="M161.712 104.714C143.077 106.756 137.702 127.04 138.382 142.772C138.956 156.461 140.855 172.445 150.567 182.765C155.691 188.213 147.987 195.738 142.396 190.936C127.739 178.25 127.847 155.243 130.176 137.683C132.362 121.199 142.468 101.954 161.712 103.101C162.751 103.173 162.715 104.606 161.712 104.714Z" fill="#FF9505"/>
<path d="M80.7217 178.68C79.5033 173.412 80.7218 167.642 81.6893 162.374C82.8003 156.211 84.4129 150.083 86.0972 144.062C89.5016 131.949 93.3003 119.944 97.8874 108.226C99.8942 103.137 104.66 99.5892 110.323 101.166C115.34 102.528 119.174 108.441 117.382 113.601C113.082 125.965 107.993 138.042 102.474 149.903C99.8584 155.53 97.1348 161.192 94.0887 166.567C91.3651 171.369 88.3191 176.637 83.8395 179.97C82.7286 180.759 81.0084 179.898 80.7217 178.68Z" fill="#FFC474"/>
<path d="M34.5645 160.117C34.6004 168.897 39.4383 177.032 45.638 183.267C61.2268 198.963 84.5204 204.375 106.631 204.948C137.272 205.737 183.823 197.745 198.158 166.711C200.093 162.518 202.028 158.253 202.601 153.666C204.142 141.231 204.608 123.779 197.907 112.06L198.301 114.497C199.949 126.502 197.512 139.081 191.241 149.473C184.97 159.866 174.9 167.893 163.289 171.513C153.577 174.523 143.149 174.38 133.043 173.484C121.611 172.445 110.108 170.366 99.6075 165.743C87.8891 160.583 77.7473 152.448 66.7097 145.961C61.3701 142.808 55.3138 139.977 49.1858 140.944C40.5134 142.235 34.5287 151.337 34.5645 160.117Z" fill="#FF9505"/>
<path d="M84.592 46.7307C84.592 51.1028 82.2985 55.8332 78.8941 58.6284C78.4282 58.9868 77.7832 58.5567 78.0698 57.9833C79.0374 56.0482 80.22 54.2564 81.1518 52.2854C82.0835 50.3502 82.9436 48.4509 83.947 46.5516C84.1262 46.2649 84.592 46.4082 84.592 46.7307Z" fill="#053C5E"/>
<path d="M81.9759 53.9696C81.5459 58.1266 78.2848 61.4235 74.3428 62.6778C70.6158 63.8246 65.5271 62.5345 65.1687 58.0549C65.0254 56.1556 68.1789 55.7256 68.5015 57.589C69.2899 61.8177 73.5185 60.8143 76.2063 59.0942C78.2848 57.7682 79.7541 55.7255 81.1517 53.7546C81.4026 53.432 82.0476 53.5037 81.9759 53.9696Z" fill="#053C5E"/>
<path d="M61.9793 51.2819C57.8939 48.9884 53.4144 47.4116 49.4724 44.8314C47.2864 43.3979 49.329 39.8859 51.515 41.3194C55.4929 43.9354 58.754 47.4474 62.5526 50.3143C63.126 50.7444 62.6243 51.6761 61.9793 51.2819Z" fill="#053C5E"/>
<path d="M59.65 56.0482C57.3206 55.2598 54.9554 54.4355 52.6261 53.6471C50.4401 52.8946 48.1107 52.3212 46.1397 51.1386C44.2762 50.0277 45.4946 46.9457 47.6448 47.5908C52.0527 48.9167 56.3889 52.0703 60.4026 54.2922C61.2985 54.8297 60.6893 56.4065 59.65 56.0482Z" fill="#053C5E"/>
<path d="M105.055 66.799C109.068 65.7239 113.978 66.0464 117.92 67.2648C120.536 68.0532 119.461 71.9952 116.773 71.3502C112.903 70.4184 108.853 69.4867 105.019 68.3399C104.338 68.1249 104.266 67.014 105.055 66.799Z" fill="#053C5E"/>
<path d="M100.253 72.5686C102.474 72.1386 104.732 73.4287 106.703 74.3605C109.176 75.5072 111.362 76.869 113.476 78.5891C115.34 80.0943 112.939 83.0329 110.968 81.8503C108.817 80.5602 106.775 79.1984 104.696 77.8366C102.976 76.7257 100.754 75.7939 99.715 73.9663C99.3925 73.4646 99.6434 72.712 100.253 72.5686Z" fill="#053C5E"/>
</svg>
