<svg width="171" height="218" viewBox="0 0 171 218" fill="none" xmlns="http://www.w3.org/2000/svg">
<path d="M167.683 204.151C167.487 205.131 166.664 205.916 165.448 206.504C162.742 207.837 157.997 208.426 152.742 208.622C152.075 208.661 151.409 208.661 150.742 208.661C149.448 208.7 148.115 208.661 146.781 208.661C138.389 208.543 130.271 207.759 128.389 207.68C121.448 207.406 114.585 207.798 107.722 208.426C107.487 208.465 107.252 208.465 107.016 208.504C107.213 209.327 106.977 210.19 106.467 211.014C105.997 211.759 105.252 212.504 104.35 213.21C103.801 213.641 103.134 214.073 102.467 214.426C102.115 214.622 101.722 214.818 101.33 215.014C99.3302 215.955 97.1341 216.582 95.1733 216.7C94.1929 216.778 93.291 216.7 92.5067 216.465C92.1537 216.347 91.84 216.229 91.5263 216.033C91.0165 215.72 90.5851 215.367 90.1929 214.935C88.8204 213.445 88.3106 211.602 86.8204 210.504C86.7812 210.465 86.7027 210.426 86.6635 210.386C86.1145 210.426 85.5655 210.465 85.0165 210.504C81.9969 210.7 78.9772 210.857 75.9576 210.896C75.4478 210.896 74.938 210.896 74.4674 210.896L84.1145 209.524C80.7027 209.053 76.7419 210.465 73.5263 210.739C73.1341 210.778 72.7812 210.778 72.4282 210.818C70.5851 210.935 68.7027 210.975 66.8596 210.935C65.3694 210.896 63.9184 210.857 62.4282 210.778C62.1929 210.778 61.9576 210.739 61.7223 210.739C60.2714 210.661 58.8596 210.582 57.4478 210.465C57.1733 210.465 56.938 210.425 56.6635 210.425C56.3498 210.425 56.0361 210.386 55.7615 210.347C44.7027 209.641 33.6831 208.151 22.8988 205.602C17.0949 204.229 7.83996 203.602 4.7027 197.68C1.76152 192.151 1.21251 180.543 0.506623 174.229C-1.06201 160.112 1.13407 145.092 5.40859 131.602C9.76153 117.837 18.4674 105.014 29.0164 95.1313C29.8792 94.3078 30.7811 93.4843 31.6831 92.7C34.6243 90.1509 38.4674 87.5235 42.7811 85.0921C53.9576 78.8176 68.3106 73.9156 78.7027 75.3666L108.82 75.1705C113.683 75.249 118.075 76.4647 121.997 78.5431C124.899 80.0725 127.566 82.0725 129.997 84.3862C132.664 86.9353 135.056 89.9156 137.173 93.1313C140.664 98.3862 143.409 104.308 145.526 110.151C146.938 114.033 148.036 117.876 148.938 121.484C151.173 130.857 155.448 139.955 157.291 149.288C159.918 162.386 156.938 176.504 158.938 189.916C159.409 193.053 158.585 192.975 160.271 195.563C161.762 197.876 165.487 198.975 167.017 201.406C167.369 201.994 167.605 202.504 167.683 202.975C167.762 203.406 167.762 203.798 167.683 204.151Z" fill="#A5A2AD"/>
<path d="M127.409 138.465C129.134 149.798 129.213 161.288 130.585 172.7C131.252 178.308 132.35 183.916 134.115 189.288C135.487 193.563 137.252 197.798 140.036 201.367C141.722 203.524 143.879 205.249 146.428 206.269C148.664 207.131 151.095 207.484 153.487 207.602C156.075 207.68 158.664 207.367 161.134 206.661C162.311 206.308 163.448 205.837 164.507 205.249C165.566 204.661 166.467 203.916 167.369 203.131C167.762 202.778 168.193 203.288 167.958 203.68C166.154 207.053 161.997 208.661 158.428 209.327C154.546 210.033 150.428 209.798 146.664 208.622C137.801 205.876 134.311 196.229 131.918 188.19C127.173 172.072 128.428 155.092 127.173 138.543C127.173 138.386 127.409 138.347 127.409 138.465Z" fill="#243743"/>
<path d="M103.448 147.249C100.899 157.68 102.781 168.621 103.801 179.092C104.35 184.661 104.624 190.229 105.252 195.759C105.526 198.425 105.958 201.053 106.467 203.68C106.781 205.288 107.291 206.818 107.722 208.386C107.997 209.484 108.115 210.622 107.683 211.68C107.134 213.014 105.84 213.876 104.624 214.582C101.252 216.622 96.8204 218.229 92.8204 217.68C86.3106 216.778 84.4282 209.327 82.7419 204.072C79.5263 194.19 74.8596 184.857 70.5067 175.445C68.1145 170.347 65.7223 165.171 63.9184 159.798C62.2714 154.778 61.487 149.484 61.2125 144.19C61.0557 141.484 61.0165 138.739 61.2518 136.033C61.291 135.602 61.9184 135.563 61.9968 135.994C62.8204 141.327 62.7812 146.778 63.6831 152.112C64.6243 157.602 66.6635 162.7 68.8988 167.837C71.1733 173.092 73.7223 178.269 76.1145 183.484C78.5067 188.622 80.6635 193.798 82.7419 199.053C83.9969 202.19 84.8204 205.484 86.0361 208.622C87.0165 211.21 88.3106 213.916 90.8204 215.327C94.0361 217.171 98.3498 215.798 101.487 214.543C103.095 213.916 105.056 212.974 106.115 211.563C106.781 210.661 106.585 209.602 106.389 208.582C106.036 207.014 105.526 205.484 105.252 203.876C104.781 201.249 104.467 198.582 104.193 195.916C103.605 190.347 103.33 184.778 102.82 179.21C102.35 173.876 101.644 168.582 101.409 163.21C101.173 158.151 101.213 153.014 102.742 148.112C102.86 147.72 102.977 147.367 103.095 147.014C103.134 146.818 103.487 146.974 103.448 147.249Z" fill="#243743"/>
<path d="M38.4674 148.739C39.9183 150.818 41.2909 152.857 42.1928 155.249C43.0556 157.563 43.4085 159.994 43.6438 162.465C44.0752 167.367 43.683 172.269 43.7223 177.21C43.7615 180.504 44.5066 183.798 46.2713 186.622C47.7223 188.975 49.9183 190.818 52.1928 192.347C55.9183 194.857 60.036 196.661 63.7223 199.171C67.6438 201.837 70.8595 205.367 72.4674 209.916C72.6242 210.308 72.585 210.778 72.1929 211.092C70.7027 212.269 69.0164 212.386 67.2517 211.798C66.5458 211.563 66.6634 210.504 67.3693 210.386C68.6242 210.229 69.8791 210.386 70.938 209.563C70.8595 209.955 70.7811 210.347 70.6634 210.739C69.6438 207.876 67.9576 205.327 65.7223 203.249C63.5654 201.288 61.0556 199.759 58.5066 198.308C53.5654 195.524 48.1928 192.896 44.9379 188.033C43.6046 186.033 42.7419 183.798 42.2713 181.445C41.6438 178.308 41.9183 175.131 42.036 171.955C42.1928 168.073 42.3105 164.19 41.8399 160.308C41.3693 156.465 40.3889 152.151 38.1536 148.935C38.036 148.778 38.3105 148.504 38.4674 148.739Z" fill="#243743"/>
<path d="M61.9576 204.19C63.2125 205.014 64.6243 205.955 64.6635 207.641C64.7419 209.288 63.5262 210.778 61.8792 210.896C61.6831 210.896 61.487 210.739 61.5654 210.543C61.8007 210.033 61.9576 209.602 62.389 209.21C62.7811 208.818 63.0556 208.347 63.2517 207.798C63.6439 206.661 62.5066 205.249 61.7223 204.543C61.5262 204.347 61.7223 204.033 61.9576 204.19Z" fill="#243743"/>
<path d="M55.7615 204.739C56.7419 205.72 57.487 206.857 57.6439 208.269C57.7615 209.288 57.487 211.523 56.1929 211.68C55.9968 211.72 55.8008 211.641 55.7223 211.445C55.3694 210.582 56.0753 209.523 56.1929 208.621C56.3106 207.406 55.9576 206.151 55.2909 205.131C55.0949 204.778 55.487 204.425 55.7615 204.739Z" fill="#243743"/>
<path d="M158.546 198.896C159.762 199.955 160.664 201.053 161.213 202.582C161.722 204.073 162.232 206.19 161.291 207.602C161.134 207.798 160.82 207.759 160.703 207.563C160.075 206.269 160.35 204.661 160.036 203.249C159.722 201.877 159.016 200.465 158.036 199.445C157.722 199.131 158.232 198.582 158.546 198.896Z" fill="#243743"/>
<path d="M151.017 199.759C152.899 200.543 154.193 202.269 154.35 204.347C154.507 206.229 153.409 208.935 151.33 209.288C150.938 209.367 150.624 208.975 150.742 208.622C151.173 207.21 152.311 206.229 152.428 204.661C152.546 203.053 151.683 201.72 150.546 200.661C150.154 200.308 150.428 199.524 151.017 199.759Z" fill="#243743"/>
<path d="M99.6831 206.229C100.35 207.916 100.624 209.72 101.291 211.406C101.526 211.994 103.291 214.818 101.958 215.092C100.585 215.367 99.7615 212.543 99.4086 211.563C98.8596 209.994 98.3498 208.073 98.6243 206.386C98.6635 205.916 99.4478 205.68 99.6831 206.229Z" fill="#243743"/>
<path d="M92.7028 207.641C92.4283 209.288 92.4675 211.053 92.8596 212.661C93.0557 213.484 93.3694 214.308 93.84 215.014C94.3106 215.759 95.1734 216.425 95.291 217.367C95.3302 217.641 95.1734 217.994 94.8596 217.994C92.742 218.151 91.6047 215.092 91.1734 213.484C90.6636 211.484 91.1342 209.327 91.8008 207.406C91.9577 206.935 92.7812 207.092 92.7028 207.641Z" fill="#243743"/>
<path d="M145.487 110.19C130.193 120.818 110.154 128.347 99.5654 130.033C80.1145 133.171 67.6046 128.622 51.1733 118.582C44.3497 114.425 39.9184 113.445 34.938 106.465C32.8203 103.484 30.7811 98.9353 28.9772 95.1313C29.8399 94.3078 30.7419 93.4843 31.6438 92.7C34.585 90.1509 38.4282 87.5235 42.7419 85.0921C52.6635 84.9745 62.8203 85.798 70.2321 85.7196C86.4282 85.5235 102.781 86.5039 118.977 85.7196C122.781 85.5235 126.428 85.0529 129.997 84.3862C132.663 86.9353 135.056 89.9156 137.173 93.1313C140.624 98.4254 143.369 104.347 145.487 110.19Z" fill="#243743"/>
<path d="M139.722 15.0138C141.566 8.26867 147.213 2.85691 153.683 1.64122C154.193 1.56279 154.703 1.48436 155.173 1.68044C155.566 1.8373 155.879 2.19024 156.154 2.54318C158.507 5.68044 159.409 9.75887 159.997 13.7197C160.938 20.0334 161.409 26.4255 161.369 32.8177L139.722 15.0138Z" fill="#243743"/>
<path d="M47.291 14.151C48.0753 14.1902 48.0753 12.9353 47.7224 12.1902C46.3106 9.17058 44.3106 6.4647 42.1537 3.99411C40.7812 2.4647 39.291 0.9745 37.4086 0.307833C35.5263 -0.358834 33.1733 0.0333257 31.9969 1.7196C30.4675 3.91568 30.3498 7.83725 29.1733 10.3863C27.4086 14.2686 25.84 17.8765 24.8596 22.0725C23.9577 26.0333 23.3302 30.2686 24.5459 34.1118L47.291 14.151Z" fill="#243743"/>
<path d="M103.33 116.347C112.467 116.269 121.566 115.21 130.35 112.622C144.193 108.504 156.389 98.3078 163.409 84.9745C171.213 70.1902 172.781 50.7392 165.958 35.0921C157.526 15.7196 135.997 10.1902 117.762 6.46466C105.213 3.91564 92.3498 3.32741 79.6047 4.15094C68.6243 4.85682 57.6047 6.58231 47.4087 11.0137C37.2518 15.4451 27.9184 22.7392 22.193 32.7392C12.8988 49.0137 14.7028 71.0137 24.8596 86.6608C31.291 96.5823 40.7028 103.994 51.1341 108.504C63.1734 113.68 76.1538 114.739 89.0949 115.837C93.84 116.19 98.5851 116.386 103.33 116.347Z" fill="#A5A2AD"/>
<path d="M47.0165 31.0137C50.2322 32.1902 50.8596 40.8961 46.6635 40.9353C44.5067 40.9745 43.6439 38.2686 43.4086 36.3862C43.0949 34.1902 43.6831 32.2294 45.4871 30.9745C46.2714 30.4647 47.6047 30.5823 48.193 31.3274C49.0557 32.4647 49.6047 33.6019 49.6047 35.0921C49.5655 36.4255 48.5851 37.5235 47.291 37.5235C45.9184 37.5235 45.1733 36.3862 44.9773 35.0921C44.938 34.7392 44.8204 34.5039 44.6635 34.2294C45.6831 34.5039 46.7028 34.8176 47.7224 35.0921C47.3302 35.2882 47.4086 35.4059 47.4086 35.9157C47.4086 36.2686 47.4478 36.5823 47.5263 36.9353C47.5655 37.0529 47.5655 37.1706 47.6047 37.2882C47.9184 38.0725 47.4479 38.0333 46.2322 37.1706C46.2322 36.8961 46.5459 36.2294 46.5851 35.9549C46.6635 35.5235 46.6243 35.0529 46.5851 34.6215C46.4675 33.6804 45.9576 32.8961 45.9184 31.9157C45.84 31.3274 46.4675 30.8176 47.0165 31.0137Z" fill="#243743"/>
<path d="M138.585 36.1902C141.487 36.5823 143.33 41.6019 141.213 43.9157C139.879 45.3666 137.722 44.5823 136.938 42.896C135.997 40.9353 136.428 38.7784 137.526 37.0137C138.271 35.8372 140.154 35.2098 141.134 36.5039C142.585 38.4647 143.016 41.1313 141.762 43.3666C141.095 44.5431 139.605 45.0137 138.467 44.3078C137.213 43.5235 137.095 42.0725 137.605 40.7784C137.801 40.3078 137.722 39.9157 137.526 39.4843C138.585 39.7588 139.605 40.0725 140.663 40.347C140.899 40.1902 140.546 40.4647 140.507 40.6608C140.467 40.7784 140.507 41.1313 140.467 41.2098C140.467 41.249 140.467 41.3274 140.507 41.3666C140.036 41.2882 139.565 41.249 139.056 41.1706C139.056 41.1706 139.173 40.2686 139.173 40.2294C139.173 38.9353 138.624 37.798 138.271 36.6215C138.193 36.4255 138.389 36.1509 138.585 36.1902Z" fill="#243743"/>
<path d="M109.997 66.1509C113.644 76.7784 116.35 88.7784 112.35 99.2489C110.664 103.641 107.134 107.955 102.664 107.798C97.6047 107.641 94.3106 102.151 92.5066 97.1313C90.8596 92.5038 89.6439 87.6803 88.8988 82.7784C88.7419 92.2293 80.7419 99.8764 72.1537 102.229C71.4086 102.425 70.6635 102.582 69.9184 102.386C69.3302 102.19 68.8204 101.798 68.3498 101.327C64.7027 97.7195 63.2517 92.1509 63.3694 86.8568C63.487 81.5627 65.0164 76.4646 66.5066 71.4058C67.9184 66.6607 69.4086 61.7587 72.5066 57.994C77.5655 51.8372 86.8204 49.6411 94.2714 50.0332C102.585 50.543 107.409 58.6607 109.997 66.1509Z" fill="#595D5F"/>
<path d="M90.6243 65.6019C90.8204 68.4254 90.5459 71.3274 90.4283 74.1509C90.3498 77.0137 90.3106 79.8764 90.1538 82.7392C90.0753 84.1901 88.0361 84.2294 87.9969 82.7392C87.9577 79.7588 88.1145 76.7784 88.3106 73.798C88.4675 71.0137 88.5459 68.1117 89.1341 65.4058C89.3694 64.5039 90.5851 64.7784 90.6243 65.6019Z" fill="#A5A2AD"/>
<path d="M81.8007 48.347C80.5066 49.249 79.6439 50.7 79.5655 52.9353C79.487 56.1509 80.5851 59.4451 82.5851 61.8764C85.8792 65.8372 91.4478 67.3274 96.1537 65.6804C97.9184 65.0529 99.5655 63.9941 100.781 62.5039C103.409 59.249 105.252 50.6215 101.33 48.4647C97.9184 46.5823 91.4086 47.0137 87.6831 46.9745C85.6047 46.896 83.3694 47.2098 81.8007 48.347Z" fill="#243743"/>
</svg>
