<svg width="67" height="55" viewBox="0 0 67 55" fill="none" xmlns="http://www.w3.org/2000/svg">
<path fill-rule="evenodd" clip-rule="evenodd" d="M32.9629 26.145C34.0182 27.5087 36.9906 26.6676 37.2159 24.958C37.3997 23.5626 36.1245 20.2982 34.7887 16.8785C32.8826 11.9989 30.853 6.80316 32.7626 6.27022C44.481 2.99975 57.2246 13.9103 60.6707 19.4966C61.0993 26.667 56.9011 42.3059 43.8373 45.9518C42.6612 46.2801 42.0777 43.0098 41.428 39.3694C40.7883 35.7846 40.0845 31.8408 38.6878 30.6207C37.4198 29.5131 34.4333 30.0991 34.5354 31.7796C34.591 32.6949 35.0426 34.3465 35.5488 36.1978C36.636 40.1743 37.975 45.0719 36.1832 45.572C35.0161 45.8977 34.0935 42.5921 33.171 39.2865C32.2484 35.9809 31.3259 32.6753 30.1588 33.0011C28.6998 33.4083 29.3378 36.835 29.9722 40.2419C30.6064 43.6483 31.237 47.0348 29.7641 47.3635C28.5318 47.6385 27.7302 44.7052 26.885 41.6121C25.8759 37.9199 24.8047 33.9998 22.8643 35.0369C21.5618 35.733 22.3041 38.6652 23.0725 41.7005C23.9118 45.0159 24.7823 48.4543 23.0532 49.2364C21.4001 49.9842 20.8147 47.2176 20.1602 44.1238C19.3773 40.4239 18.4956 36.2561 15.5699 37.0726C13.5808 37.6278 13.5983 39.9855 13.615 42.2282C13.6301 44.262 13.6445 46.2012 12.1608 46.6153C9.0411 47.486 3.35803 28.9439 6.94918 27.9416C8.79518 27.4264 9.83573 28.8812 10.8471 30.2951C11.8031 31.6318 12.7331 32.9319 14.2928 32.4966C18.2215 31.4002 16.1124 25.6539 14.4241 21.0539C13.2973 17.9839 12.3579 15.4245 13.5257 15.0986C14.9846 14.6914 16.1967 18.4709 17.4088 22.2504C18.6209 26.0299 19.8329 29.8094 21.2918 29.4023C22.539 29.0542 21.6395 25.5899 20.695 21.952C19.6507 17.9301 18.5514 13.696 20.2366 13.2256C21.9218 12.7553 23.4153 16.8795 24.8339 20.7969C26.1171 24.3403 27.339 27.7146 28.5862 27.3665C29.4925 27.1135 28.5824 24.1243 27.5699 20.7986C26.3006 16.6298 24.8704 11.9324 26.6557 11.4341C28.1155 11.0267 29.6391 16.1369 30.9367 20.4891C31.7139 23.0959 32.4101 25.4308 32.9629 26.145ZM44.6849 23.071C43.8977 22.0348 43.7892 19.8614 43.7892 19.8614C43.7892 19.8614 42.1081 15.4754 43.7394 13.7138C45.9849 11.2888 50.0448 14.2554 51.5043 17.0792C52.9638 19.9031 51.5601 23.5811 49.3308 24.7334C47.7029 25.5747 45.8507 24.6053 44.6849 23.071Z" fill="#FFBB5F"/>
</svg>
