<svg width="79" height="66" viewBox="0 0 79 66" fill="none" xmlns="http://www.w3.org/2000/svg">
<path fill-rule="evenodd" clip-rule="evenodd" d="M39.1262 31.1002C38.865 33.1623 35.2635 34.1084 33.9831 32.4709C32.9381 31.1344 32.2641 26.9639 31.558 22.5951C30.5505 16.3611 29.4778 9.7233 27.1686 10.3387C12.9978 14.1155 6.44272 33.246 6.2836 41.1564C10.2275 48.8649 24.1599 62.5352 39.9576 58.3249C41.3798 57.9458 39.9841 54.1927 38.4304 50.0147C36.9004 45.9004 35.2172 41.3742 35.9208 39.2523C36.5595 37.326 40.0196 36.1064 40.9422 37.914C41.4447 38.8985 41.9867 40.8901 42.5943 43.1224C43.8994 47.9172 45.5067 53.8227 47.6735 53.2453C49.0849 52.8691 48.0195 48.8717 46.9541 44.8743C45.8888 40.877 44.8234 36.8796 46.2348 36.5034C47.9991 36.0332 49.4341 39.9823 50.8607 43.9084C52.2872 47.834 53.7053 51.7366 55.436 51.1764C56.884 50.7078 55.9209 47.1711 54.9053 43.4416C53.6931 38.9898 52.406 34.2633 55.0558 34.1525C56.8346 34.0781 57.8585 37.5774 58.9185 41.1998C60.0763 45.1563 61.277 49.2597 63.5513 49.0136C65.7257 48.7782 64.6401 45.5469 63.4261 41.9336C61.9743 37.6122 60.3388 32.7445 63.8767 31.8016C66.2821 31.1605 67.7072 33.6196 69.0626 35.9587C70.2919 38.08 71.4639 40.1025 73.2581 39.6243C77.0307 38.6189 71.5824 15.8852 67.2397 17.0426C65.0074 17.6376 64.8173 19.7852 64.6326 21.8725C64.4579 23.8458 64.288 25.7652 62.4019 26.2679C57.651 27.5341 56.3238 20.2759 55.2614 14.4656C54.5523 10.5879 53.9612 7.35501 52.5489 7.7314C50.7847 8.20159 51.8395 12.8684 52.8943 17.5351C53.9492 22.2018 55.004 26.8685 53.2398 27.3387C51.7316 27.7407 50.5451 23.5926 49.2991 19.2367C47.9217 14.421 46.4715 9.35112 44.4336 9.89425C42.3957 10.4374 43.3693 15.6343 44.294 20.5707C45.1304 25.0357 45.927 29.2877 44.4188 29.6896C43.3228 29.9817 42.4382 26.3204 41.454 22.2472C40.2203 17.1411 38.8301 11.3877 36.6712 11.9631C34.9058 12.4336 36.4517 18.6729 37.7682 23.9866C38.5567 27.1694 39.263 30.0202 39.1262 31.1002ZM25.0718 35.0832C25.255 33.5253 24.0374 31.202 24.0374 31.202C24.0374 31.202 23.0983 25.6183 20.326 24.7875C16.5099 23.6437 14.1098 29.2095 14.3227 33.0353C14.5356 36.8611 18.2445 39.8214 21.2649 39.6533C23.4703 39.5306 24.8004 37.3901 25.0718 35.0832Z" fill="#44BBA4"/>
</svg>
